<svg xmlns="http://www.w3.org/2000/svg" width="82.041" height="99.28" viewBox="0 0 82.041 99.28">
  <g id="Group_245" data-name="Group 245" transform="translate(0.051 0.05)">
    <g id="Group_225" data-name="Group 225" transform="translate(0.838 90.848)">
      <path id="Path_334" data-name="Path 334" d="M289.3,773.79v1.888c0,.517,0,.989.012,1.391a7.162,7.162,0,0,0,.049.948,1.063,1.063,0,0,0,.094.391.4.4,0,0,0,.317.195c.029.008.065.008.094.017h.1a.8.8,0,0,0,.171.02c.049,0,.1.008.126.008s.057,0,.065.02l.02.037c0,.032-.02.049-.049.061a.408.408,0,0,1-.122.017h-.22c-.118,0-.224,0-.337-.008h-.305c-.126-.008-.232-.008-.317-.02h-.289c-.073.012-.171.012-.277.02h-.423a1.7,1.7,0,0,1-.2.008.509.509,0,0,1-.134-.017.054.054,0,0,1-.037-.061l.016-.037a.084.084,0,0,1,.069-.02l.077-.008.085-.008.077-.012c.029-.008.057-.008.077-.017a.3.3,0,0,0,.22-.195,2.8,2.8,0,0,0,.094-.391c.028-.232.04-.545.049-.948v-2.509c0-.021,0-.029-.02-.041s-.028-.016-.037-.016l-4.551-.012-.049.02a.086.086,0,0,0-.016.057v2.5a8.935,8.935,0,0,0,.049.948,1.06,1.06,0,0,0,.1.391.407.407,0,0,0,.317.195c.028.008.057.008.1.017h.094a.829.829,0,0,0,.163.02c.057,0,.1.008.126.008s.057,0,.077.02l.008.037a.054.054,0,0,1-.036.061.509.509,0,0,1-.134.017h-.211c-.114,0-.232,0-.334-.008h-.309c-.122-.008-.228-.008-.317-.02h-.285c-.086.012-.183.012-.289.02h-.411a2.012,2.012,0,0,1-.211.008.464.464,0,0,1-.126-.017.06.06,0,0,1-.045-.061.046.046,0,0,1,.028-.037c.008-.02.029-.02.057-.02l.077-.008.085-.008.085-.012c.029-.008.057-.008.077-.017a.282.282,0,0,0,.22-.195,1.56,1.56,0,0,0,.085-.391,7.926,7.926,0,0,0,.049-.948c.008-.4.008-.862.008-1.379v-3.519c0-.276-.008-.5-.016-.658v-.029a.951.951,0,0,0-.106-.423.527.527,0,0,0-.354-.191l-.09-.02h-.1a.4.4,0,0,0-.1-.008h-.077a.1.1,0,0,1-.065-.02.061.061,0,0,1-.02-.049c0-.037.008-.057.037-.065a.483.483,0,0,1,.134-.02h.366a1.135,1.135,0,0,0,.2.012h.2c.114.008.211.008.3.016h.285c.089-.008.175-.008.289-.016h.411a1.3,1.3,0,0,1,.2-.012.483.483,0,0,1,.134.02c.028.008.037.028.037.065a.061.061,0,0,1-.021.049.1.1,0,0,1-.065.02h-.029a.448.448,0,0,0-.1.008.963.963,0,0,1-.143.02.41.41,0,0,0-.289.191,1.074,1.074,0,0,0-.106.423v.029c-.008.162-.016.382-.016.658v1.851c0,.028.008.057.016.057l.049.008,4.551-.008h.037c.02,0,.02-.021.02-.049v-1.859a5.971,5.971,0,0,0-.02-.658v-.029a.774.774,0,0,0-.106-.423.5.5,0,0,0-.354-.191c-.016-.008-.049-.008-.085-.02h-.106a.333.333,0,0,0-.093-.008h-.077a.1.1,0,0,1-.057-.02.05.05,0,0,1-.029-.049.06.06,0,0,1,.045-.065.374.374,0,0,1,.126-.02h.362a1.3,1.3,0,0,0,.211.012h.191c.118.008.224.008.3.016H289c.085-.008.183-.008.289-.016h.419a1.3,1.3,0,0,1,.2-.012.385.385,0,0,1,.122.02.062.062,0,0,1,.049.065.049.049,0,0,1-.028.049.109.109,0,0,1-.057.02h-.037a.412.412,0,0,0-.1.008.712.712,0,0,1-.134.02.427.427,0,0,0-.3.191,1.068,1.068,0,0,0-.106.423v.029c-.008.162-.021.382-.021.658v1.619Z" transform="translate(-268.068 -770.687)" fill="#d1aa67"/>
      <path id="Path_335" data-name="Path 335" d="M287.9,773.79v1.888c0,.517,0,.989.008,1.391a7.927,7.927,0,0,0,.049.948,1.063,1.063,0,0,0,.1.391.394.394,0,0,0,.314.195c.028.008.069.008.1.017h.106a.673.673,0,0,0,.163.02c.049,0,.093.008.122.008s.061,0,.069.02l.02.037c0,.032-.02.049-.049.061a.44.44,0,0,1-.126.017h-.22c-.114,0-.22,0-.333-.008H287.9c-.122-.008-.228-.008-.313-.02H287.3c-.077.012-.171.012-.277.02H286.6a1.736,1.736,0,0,1-.2.008.485.485,0,0,1-.134-.017.057.057,0,0,1-.041-.061l.02-.037a.076.076,0,0,1,.065-.02l.077-.008.085-.008.077-.012c.028-.008.057-.008.077-.017a.283.283,0,0,0,.22-.195,2.273,2.273,0,0,0,.1-.391c.029-.232.037-.545.049-.948v-4.9a6.016,6.016,0,0,0-.02-.658v-.029a.91.91,0,0,0-.1-.423.4.4,0,0,0-.268-.183l-.037-.016h-.049c-.049-.012-.093-.012-.134-.02h-.114a.108.108,0,0,1-.057-.02.049.049,0,0,1-.029-.049.059.059,0,0,1,.049-.065.386.386,0,0,1,.122-.02h.212a1.451,1.451,0,0,1,.228.012h.224c.106.008.2.008.277.016h.289c.085-.008.179-.008.285-.016h.423a1.252,1.252,0,0,1,.2-.012.418.418,0,0,1,.126.02.063.063,0,0,1,.049.065.057.057,0,0,1-.028.049.122.122,0,0,1-.061.02h-.037a.4.4,0,0,0-.093.008.776.776,0,0,1-.134.02.42.42,0,0,0-.3.191.954.954,0,0,0-.106.423v.029c-.012.162-.02.382-.02.658v1.619Z" transform="translate(-254.905 -770.687)" fill="#d1aa67"/>
      <path id="Path_336" data-name="Path 336" d="M293.274,771.293v5.918c.008.4.02.72.049.948a1.116,1.116,0,0,0,.106.4.409.409,0,0,0,.313.191l.09.012a.437.437,0,0,0,.106.008c.057.008.114.008.163.021h.122a.164.164,0,0,1,.077.016l.008.049c0,.029-.008.049-.037.057a.362.362,0,0,1-.134.02h-.211c-.114,0-.228,0-.333-.008h-.309c-.122-.013-.227-.021-.313-.021a1.4,1.4,0,0,1-.146-.008c-.016,0-.065.008-.142.008a2.489,2.489,0,0,0-.289.021h-.411c-.086.008-.155.008-.212.008a.292.292,0,0,1-.122-.02.06.06,0,0,1-.049-.057c0-.02.008-.028.029-.049a.083.083,0,0,1,.057-.016h.077a.208.208,0,0,1,.086-.012l.086-.017.077-.012a.291.291,0,0,0,.22-.191,1.648,1.648,0,0,0,.086-.4,7.122,7.122,0,0,0,.049-.948c.012-.4.012-.862.012-1.371v-4.547l-1.591.017a3.087,3.087,0,0,0-.728.089.638.638,0,0,0-.366.264,1.638,1.638,0,0,0-.114.212c-.029.041-.049.085-.069.118a.136.136,0,0,1-.045.085.065.065,0,0,1-.057.029.062.062,0,0,1-.041-.029.219.219,0,0,1-.008-.077,1.52,1.52,0,0,1,.029-.2c.02-.1.049-.22.077-.354v-.016l.008-.02c.028-.126.057-.232.077-.338s.037-.162.037-.179l.02-.041a.076.076,0,0,1,.02-.045.113.113,0,0,1,.029-.077.051.051,0,0,1,.037-.041.265.265,0,0,1,.077.02c.028.02.069.028.106.049s.077.029.126.037a.651.651,0,0,0,.171.021.622.622,0,0,0,.126.02c.045,0,.085.008.122.008a3.232,3.232,0,0,1,.354.02c.106.008.191.008.24.008l4.023-.008a3.137,3.137,0,0,0,.452-.012,2.019,2.019,0,0,0,.317-.037c.077-.008.134-.021.191-.029a.254.254,0,0,1,.106-.02c.029,0,.045.008.045.041v.326c0,.093-.008.191-.008.285v.146c0,.114-.008.228-.008.326a1.292,1.292,0,0,0-.012.179.278.278,0,0,1-.016.106c-.02.029-.029.041-.057.041a.072.072,0,0,1-.061-.041c-.008-.029-.016-.077-.028-.142l-.008-.135a.573.573,0,0,0-.289-.4,2.273,2.273,0,0,0-1.025-.171Z" transform="translate(-245.196 -770.687)" fill="#d1aa67"/>
      <path id="Path_337" data-name="Path 337" d="M299.706,771.224l.212.594,1.916,5.491h.049c.077-.26.191-.643.354-1.159s.325-1.066.5-1.64a.06.06,0,0,0,.02-.049.164.164,0,0,1,.021-.057c.142-.488.289-.956.419-1.419.147-.447.252-.83.338-1.139a2.906,2.906,0,0,0,.106-.439c.008-.1.008-.175.008-.248a.271.271,0,0,0-.114-.232.92.92,0,0,0-.488-.085.107.107,0,0,1-.077-.029.077.077,0,0,1-.02-.049.053.053,0,0,1,.041-.057.5.5,0,0,1,.143-.02c.134,0,.26,0,.382.012h.325c.1.008.183.008.252.016h.248c.065-.008.134-.008.22-.016h.126a.456.456,0,0,0,.13-.012h.269a.4.4,0,0,1,.118.02.053.053,0,0,1,.037.049.069.069,0,0,1-.02.057.093.093,0,0,1-.073.029h-.09c-.045.008-.093.008-.142.02a.2.2,0,0,0-.065.008l-.069.021a.616.616,0,0,0-.334.3,2.471,2.471,0,0,0-.26.557.838.838,0,0,0-.049.143,1.349,1.349,0,0,1-.057.155c-.114.325-.256.756-.431,1.274s-.346,1.061-.516,1.626c-.2.614-.395,1.2-.586,1.765s-.325,1-.439,1.31-.183.516-.24.643a.588.588,0,0,1-.134.24l-.036.021-.041.008-.045-.008-.049-.049a1.821,1.821,0,0,1-.1-.175c-.028-.073-.077-.179-.122-.313l-.175-.5-1.924-5.479h-.02c-.094.268-.248.679-.46,1.236s-.431,1.152-.671,1.762-.447,1.208-.659,1.765-.366.948-.46,1.2c-.049.134-.1.24-.134.317a.621.621,0,0,1-.1.171.156.156,0,0,1-.057.049.11.11,0,0,1-.065.02l-.041-.008-.037-.029a.44.44,0,0,1-.114-.224,5.949,5.949,0,0,1-.183-.573l-.269-.891-1.639-5.487c-.02-.041-.029-.09-.049-.135a.727.727,0,0,1-.045-.134,1.367,1.367,0,0,0-.212-.374.9.9,0,0,0-.289-.183l-.094-.029a.437.437,0,0,0-.106-.008c-.057-.012-.118-.012-.163-.02h-.106a.128.128,0,0,1-.069-.02.061.061,0,0,1-.028-.057.06.06,0,0,1,.049-.057.373.373,0,0,1,.114-.02h.106c.126,0,.24,0,.366.012h.326c.114.008.22.008.305.016h.3c.069-.008.155-.008.248-.016h.337c.114-.012.248-.012.382-.012a.488.488,0,0,1,.155.02c.028.02.036.036.036.057s-.008.049-.028.057a.157.157,0,0,1-.077.02h-.106a.835.835,0,0,0-.142.008l-.086.02-.089.029-.008.008h-.008a.444.444,0,0,0-.077.1.244.244,0,0,0-.037.154,1.909,1.909,0,0,0,.057.374c.045.171.093.37.142.61.049.175.134.508.277,1.025s.289,1.046.443,1.619.305,1.1.439,1.6.228.8.277.948l.02-.013.24-.63,2.038-5.479c.077-.183.126-.309.155-.366s.057-.106.085-.122h.049l.008.016a.251.251,0,0,1,.1.135c.036.077.085.2.142.354Z" transform="translate(-233.488 -770.687)" fill="#d1aa67"/>
      <path id="Path_338" data-name="Path 338" d="M297.5,772.334l.142,5.145a3.474,3.474,0,0,0,.106.919.451.451,0,0,0,.3.326.123.123,0,0,0,.057.02.18.18,0,0,0,.069.008c.077.02.163.029.24.041h.171a.167.167,0,0,1,.069.016.086.086,0,0,1,.016.049.056.056,0,0,1-.049.057.364.364,0,0,1-.142.02c-.154,0-.289,0-.419-.008h-.338a2.2,2.2,0,0,0-.248-.021c-.069,0-.106-.008-.134-.008s-.057.008-.134.008a1.66,1.66,0,0,0-.232.021h-.3c-.114.008-.228.008-.354.008a.4.4,0,0,1-.126-.02.056.056,0,0,1-.045-.057.086.086,0,0,1,.016-.049.166.166,0,0,1,.069-.016h.142l.183-.029.057-.02a.11.11,0,0,0,.057-.02c.134-.029.22-.143.26-.334a6.094,6.094,0,0,0,.065-1.025l.008-.671v-5.479a3.667,3.667,0,0,1,.02-.411c.02-.077.049-.118.1-.118a.24.24,0,0,1,.085.049.432.432,0,0,1,.114.114l.02.02.02.008a.463.463,0,0,1,.065.089.361.361,0,0,1,.069.065c.073.086.46.509,1.147,1.237s1.436,1.549,2.27,2.441c.057.069.126.134.183.2s.126.134.183.2l.057.057.065.069c.452.488.875.956,1.277,1.387s.659.728.8.883l-.114-5.459a2.338,2.338,0,0,0-.094-.728.427.427,0,0,0-.325-.28c-.02-.009-.049-.009-.077-.017H302.8a.817.817,0,0,0-.22-.028.778.778,0,0,0-.154-.012c-.029,0-.057,0-.065-.016a.084.084,0,0,1-.02-.061c0-.028.02-.045.057-.057a.992.992,0,0,1,.163-.008h.411c.106.008.191.008.281.008a2.121,2.121,0,0,0,.264.012,1.382,1.382,0,0,0,.155.008.839.839,0,0,0,.126-.008,1.424,1.424,0,0,0,.211-.012c.073,0,.163,0,.268-.008h.305a.6.6,0,0,1,.134.008c.037.012.057.029.057.057a.064.064,0,0,1-.028.061.16.16,0,0,1-.085.016.333.333,0,0,0-.106.012.546.546,0,0,0-.154.028.385.385,0,0,0-.333.256,2.852,2.852,0,0,0-.057.691l-.02.794-.012,5.479a5.594,5.594,0,0,1-.016.655c-.012.073-.041.114-.077.114a.6.6,0,0,1-.211-.126c-.094-.086-.285-.269-.565-.554-.049-.04-.268-.268-.679-.691s-.863-.883-1.35-1.387l-.037-.041-.049-.049c-.106-.122-.232-.248-.346-.37s-.228-.24-.346-.366l-.049-.037-.028-.049c-.6-.65-1.167-1.273-1.692-1.851s-.862-.956-1.025-1.148Z" transform="translate(-224.362 -770.687)" fill="#d1aa67"/>
      <path id="Path_339" data-name="Path 339" d="M285.95,778.484l-.984-2.591-.228-.61-1-2.872-.049-.086-.037-.02c-.02,0-.049.04-.077.118l-.948,2.892,0,.028-.179.513-.651,1.9a2.512,2.512,0,0,0-.106.394,1.442,1.442,0,0,0-.037.334.253.253,0,0,0,.093.211.592.592,0,0,0,.22.086l.049.012h.04l.1-.012.089.028c.016.012.016.028.016.049s-.008.049-.037.057a.291.291,0,0,1-.114.02,1.151,1.151,0,0,1-.163-.008h-.309a1.46,1.46,0,0,0-.22-.021c-.065,0-.114-.008-.143-.008s-.085.008-.175.008c-.073,0-.179.008-.3.021h-.236c-.09.008-.183.008-.268.008h-.232a.458.458,0,0,1-.155-.02.056.056,0,0,1-.045-.057.053.053,0,0,1,.029-.049.134.134,0,0,1,.065-.016h.077a.208.208,0,0,0,.085-.012.194.194,0,0,0,.069-.008h.065a.773.773,0,0,0,.574-.333,2.877,2.877,0,0,0,.33-.672l.439-1.187,1.993-5.491c.037-.093.065-.171.094-.228a.123.123,0,0,0,.02-.057.217.217,0,0,1,.086-.106l.04-.012.029.012c.028.008.057.037.085.094a2.1,2.1,0,0,1,.114.277c.049.126.211.549.488,1.257s.578,1.485.883,2.31c.22.561.439,1.111.643,1.627s.362.948.5,1.273a2.741,2.741,0,0,0,.517.931,1.018,1.018,0,0,0,.4.257.968.968,0,0,0,.24.057,1.119,1.119,0,0,0,.191.012l.077.008c.02.008.029.029.029.057s-.02.049-.065.057a.551.551,0,0,1-.154.02h-.565c-.3,0-.622-.008-.968-.028h-.228c-.069,0-.126-.008-.175-.008s-.065-.02-.065-.049a.05.05,0,0,1,.028-.049l.049-.028a.078.078,0,0,0,.057-.048.228.228,0,0,0,.028-.114l.008-.049Z" transform="translate(-274.301 -770.687)" fill="#d1aa67"/>
      <path id="Path_340" data-name="Path 340" d="M287.986,775.917l-.22-.3-.118-.151-.029-.032-.134-.171.517-.366.1-.057a1.546,1.546,0,0,0,.468-.622,2.517,2.517,0,0,0,.191-1.046,2.3,2.3,0,0,0-.5-1.57,1.648,1.648,0,0,0-.826-.509,2.453,2.453,0,0,0-.537-.057c-.151,0-.3.009-.431.02a2.507,2.507,0,0,0-.277.037.106.106,0,0,0-.065.049c-.02.016-.02.045-.02.077v5.853c.008.4.02.716.049.948a1.052,1.052,0,0,0,.1.391.371.371,0,0,0,.317.195l.085.017h.106a.833.833,0,0,0,.163.02c.057,0,.1.008.126.008s.057,0,.065.02a.035.035,0,0,1,.021.037.055.055,0,0,1-.037.061.511.511,0,0,1-.134.017h-.212c-.114,0-.232,0-.338-.008h-.305c-.134-.008-.24-.008-.317-.02h-.256c-.077.012-.163.012-.277.02h-.2a2.01,2.01,0,0,1-.22.008h-.191a.509.509,0,0,1-.134-.017.057.057,0,0,1-.041-.061.036.036,0,0,1,.02-.037c.008-.02.041-.02.069-.02l.073-.008.077-.008.089-.012a.59.59,0,0,0,.073-.017.294.294,0,0,0,.224-.195,2.8,2.8,0,0,0,.094-.391c.028-.232.037-.545.049-.948v-4.9c0-.276-.012-.5-.02-.658v-.029a.774.774,0,0,0-.106-.423.5.5,0,0,0-.354-.191c-.02-.008-.049-.008-.085-.02h-.106a.35.35,0,0,0-.1-.008h-.073a.123.123,0,0,1-.061-.02.057.057,0,0,1-.028-.049c0-.037.012-.057.041-.065a.485.485,0,0,1,.134-.02h.362a1.3,1.3,0,0,0,.211.012h.191c.114.008.219.008.3.016h.346c.106-.008.22-.008.354-.016h.451a2.184,2.184,0,0,1,.256-.012,1.642,1.642,0,0,1,.24.012h.24a3.736,3.736,0,0,1,.777.134,2.059,2.059,0,0,1,.72.325l.13.106a1.738,1.738,0,0,1,.147.151,2.477,2.477,0,0,1,.317.508,1.632,1.632,0,0,1,.142.692v.122c0,.041-.012.077-.012.118a2.685,2.685,0,0,1-.342,1.09,4.522,4.522,0,0,1-.96,1.16c.451.557.854,1.073,1.228,1.533s.708.871,1.013,1.2a2.248,2.248,0,0,0,1.305.769,1.355,1.355,0,0,0,.265.029c.077,0,.126.008.154.008a.084.084,0,0,1,.069.02.056.056,0,0,1,.029.037c0,.032-.02.049-.049.061a1.031,1.031,0,0,1-.212.017h-.756a4.24,4.24,0,0,1-.68-.037,1.378,1.378,0,0,1-.439-.143l-.033-.012-.179-.114-.175-.143a3.987,3.987,0,0,1-.5-.549c-.17-.22-.366-.476-.594-.765l-.085-.114-.1-.127-.057-.085a.269.269,0,0,1-.065-.1C288.311,776.357,288.137,776.137,287.986,775.917Z" transform="translate(-260.693 -770.687)" fill="#d1aa67"/>
      <path id="Path_341" data-name="Path 341" d="M280.294,773.55v3.413c0,.3,0,.468.008.525a.126.126,0,0,0,.008.057v.069a2.675,2.675,0,0,0,.069.452.5.5,0,0,0,.26.248l.028.008a.96.96,0,0,0,.191.069c.065.016.134.037.191.049.114.016.22.028.326.037s.171.008.228.008a.447.447,0,0,0,.106-.008c.049,0,.106-.008.155-.008a2.481,2.481,0,0,0,.276-.069,1.526,1.526,0,0,0,.683-.451,1.433,1.433,0,0,0,.305-.984,2.293,2.293,0,0,0-.041-.459,2.426,2.426,0,0,0-.122-.508,2.819,2.819,0,0,0-.325-.631,2.111,2.111,0,0,0-.557-.549c-.061-.041-.631-.431-.631-.431l.338-.289a2.324,2.324,0,0,0,.207-.171,1.684,1.684,0,0,0,.277-.476,1.806,1.806,0,0,0,.106-.614v-.175a2.437,2.437,0,0,0-.374-1.146,1.072,1.072,0,0,0-.3-.31,1.308,1.308,0,0,0-.773-.22.65.65,0,0,0-.146.012,1.664,1.664,0,0,0-.191.016.213.213,0,0,0-.085.012.333.333,0,0,0-.1.017.2.2,0,0,0-.094.04.087.087,0,0,0-.029.077Zm-.862,2.127v-3.506a5.927,5.927,0,0,0-.02-.658v-.029a.912.912,0,0,0-.094-.423.559.559,0,0,0-.366-.191c-.021-.008-.049-.008-.086-.02h-.106a.3.3,0,0,0-.085-.008h-.085a.1.1,0,0,1-.057-.02.053.053,0,0,1-.033-.049.062.062,0,0,1,.049-.065.421.421,0,0,1,.126-.02h.362a1.353,1.353,0,0,0,.212.012h.2c.1.008.207.008.285.016h.366c.085-.008.171-.008.277-.016h.317c.114-.012.24-.012.354-.012a4.467,4.467,0,0,1,.659.049,2.033,2.033,0,0,1,.683.248,1.884,1.884,0,0,1,.639.651,1.38,1.38,0,0,1,.134.358,1.145,1.145,0,0,1,.041.3,1.818,1.818,0,0,1-.317,1.082,7.647,7.647,0,0,1-.671.826l-.028.028a1.057,1.057,0,0,1,.24.086c.077.036.163.077.248.113a2.994,2.994,0,0,1,.939.785,1.915,1.915,0,0,1,.431,1.273v.118a2.362,2.362,0,0,1-.728,1.521,2.492,2.492,0,0,1-1.611.671c-.122.008-.256.008-.4.008-.057,0-.15,0-.277-.008s-.269-.008-.4-.02h-.085c-.163-.008-.305-.008-.431-.017s-.2-.012-.228-.012h-.147c-.077.012-.171.012-.276.02h-.423a1.73,1.73,0,0,1-.2.008.508.508,0,0,1-.134-.017.057.057,0,0,1-.041-.061l.02-.037a.084.084,0,0,1,.069-.02l.073-.008.089-.008.085-.012.065-.017a.276.276,0,0,0,.224-.195,1.982,1.982,0,0,0,.094-.391,7.974,7.974,0,0,0,.049-.948v-1.391Z" transform="translate(-278.5 -770.687)" fill="#d1aa67"/>
      <path id="Path_342" data-name="Path 342" d="M292.964,778.484l-.984-2.591-.224-.606-.992-2.875a.373.373,0,0,0-.049-.086l-.041-.02c-.016,0-.045.04-.073.118l-.879,2.7-.077.224-.179.513-.647,1.9a2.136,2.136,0,0,0-.106.394,1.466,1.466,0,0,0-.041.334.245.245,0,0,0,.1.211.542.542,0,0,0,.22.086l.049.012h.036l.106-.012.085.028a.053.053,0,0,1,.028.049.056.056,0,0,1-.049.057.276.276,0,0,1-.114.02,1.213,1.213,0,0,1-.163-.008h-.3a1.507,1.507,0,0,0-.22-.021c-.069,0-.118-.008-.147-.008s-.085.008-.171.008a2.619,2.619,0,0,0-.289.021h-.248c-.085.008-.171.008-.269.008h-.228a.474.474,0,0,1-.154-.02.06.06,0,0,1-.049-.057.062.062,0,0,1,.029-.049.167.167,0,0,1,.069-.016h.077a.208.208,0,0,0,.085-.012.173.173,0,0,0,.065-.008h.069a.787.787,0,0,0,.574-.333,2.716,2.716,0,0,0,.325-.672l.439-1.187,1.993-5.491c.041-.093.069-.171.1-.228a.193.193,0,0,0,.02-.057.217.217,0,0,1,.085-.106l.037-.012.028.012c.029.008.057.037.085.094a1.965,1.965,0,0,1,.118.277c.057.126.208.549.476,1.257s.577,1.485.883,2.31c.22.561.439,1.111.643,1.627s.362.948.5,1.273a2.751,2.751,0,0,0,.517.931,1.019,1.019,0,0,0,.4.257.969.969,0,0,0,.24.057,1.121,1.121,0,0,0,.191.012l.077.008c.02.008.028.029.028.057s-.02.049-.065.057a.535.535,0,0,1-.147.02h-.573c-.3,0-.622-.008-.968-.028h-.228c-.069,0-.126-.008-.175-.008s-.057-.02-.057-.049,0-.04.02-.049l.049-.028a.071.071,0,0,0,.057-.048.192.192,0,0,0,.029-.114l.008-.049A.194.194,0,0,0,292.964,778.484Z" transform="translate(-252.761 -770.687)" fill="#d1aa67"/>
      <path id="Path_343" data-name="Path 343" d="M291.085,774.686a4.467,4.467,0,0,1,.049-.6,4.136,4.136,0,0,1,.142-.635c.464-1.513,1.8-2.941,3.506-2.672a3.159,3.159,0,0,0-1.79.968,3.559,3.559,0,0,0-.891,2.644v-.008a4.374,4.374,0,0,0,.988,3,3.124,3.124,0,0,0,2.441,1.11,3.38,3.38,0,0,0,.565-.057,2.971,2.971,0,0,0,.651-.2,3.053,3.053,0,0,0,1.2-1.082,4.067,4.067,0,0,0,.549-2.326,4.009,4.009,0,0,0-1-2.949,3.243,3.243,0,0,0-1.794-1.114,3.246,3.246,0,0,1,2.616.805,3.772,3.772,0,0,1,1.208,2.962,4.448,4.448,0,0,1-1.167,3.083,4.019,4.019,0,0,1-3.115,1.285,3.741,3.741,0,0,1-2.892-1.062,4.606,4.606,0,0,1-1.2-2.346,2.793,2.793,0,0,1-.049-.4,2.46,2.46,0,0,1-.02-.386Z" transform="translate(-239.896 -770.51)" fill="#d1aa67" fill-rule="evenodd"/>
    </g>
    <g id="Group_244" data-name="Group 244">
      <g id="Group_229" data-name="Group 229" transform="translate(42.501 44.112)">
        <g id="Group_226" data-name="Group 226" transform="translate(7.671 4.055)">
          <path id="Path_344" data-name="Path 344" d="M297.287,762.429a.718.718,0,0,0,.138-.163c.163-.081.3-.219.435-.11.273.167.492.382.765.574a.424.424,0,0,1-.081.52l-1.257,1.473v2.185a24.059,24.059,0,0,0,2.7-3.576.438.438,0,0,0,.11-.329v-.082a4.073,4.073,0,0,0-1.993-2.538.881.881,0,0,0-.818-.134Zm-1.363,1.692c.407-.545.927-1.118,1.363-1.692v-2.18a.821.821,0,0,0-.3.216c-.9,1.066-1.363,1.582-2.29,2.648-.931-.956-1.639-1.773-2.567-2.729-.439.52-1.066.927-1.5,1.476.216.354,4.2,4.666,4.2,4.666-.492.492-1.037,1.008-1.692,1.61.329.383.736.875,1.066,1.257a17.569,17.569,0,0,0,3.083-2.485v-2.185l-.329.382C296.661,764.751,296.2,764.451,295.925,764.121Z" transform="translate(-290.629 -760.18)" fill="#d1aa67" fill-rule="evenodd"/>
          <path id="Path_345" data-name="Path 345" d="M295.925,764.136c.435-.627,1.062-1.253,1.5-1.855.163-.082.3-.219.435-.109.273.166.492.382.765.573a.424.424,0,0,1-.081.521c-.521.627-1.066,1.228-1.587,1.855-.3-.354-.761-.655-1.033-.984Zm-5.3-2.262c.435-.549,1.062-.956,1.5-1.476.928.956,1.635,1.774,2.567,2.729.927-1.066,1.391-1.583,2.29-2.648a.755.755,0,0,1,1.119-.081c1.228.736,2.347,2.347,1.883,2.949-2.648,4.039-3.929,4.751-5.784,6.06-.329-.382-.736-.874-1.066-1.256.655-.6,1.2-1.119,1.692-1.611C294.831,766.539,290.845,762.228,290.629,761.874Z" transform="translate(-290.629 -760.194)" fill="#d1aa67" stroke="#d1aa67" stroke-miterlimit="3.864" stroke-width="0.093" fill-rule="evenodd"/>
        </g>
        <g id="Group_228" data-name="Group 228">
          <path id="Path_346" data-name="Path 346" d="M300.862,759.251c3.412,0,6.821.028,10.234.028-.028.407-.065.81-.106,1.2a2.115,2.115,0,1,0-1.057,3.945,1.966,1.966,0,0,0,.468-.053,38.736,38.736,0,0,1-9.213,18.377c-.488-.22-1.009-.439-1.525-.655.053.6.134,1.228.191,1.826a18.875,18.875,0,0,1-4.4,4.34l-.573-.573c.846-1.717,1.668-3.466,2.514-5.186-1.037-1.009-2.046-2.046-3.083-3.054.569-.765,1.143-1.53,1.716-2.323.736.655,1.5,1.285,2.241,1.94a30.427,30.427,0,0,0,5.922-9.416c-1.257-.167-2.567,0-3.823-.167a21.5,21.5,0,0,1-3.055,5.759c-.846-.488-1.692-1.008-2.538-1.5a30.669,30.669,0,0,0,4.011-8.216c2.1.33,4.421.63,6.549.956.248-.98.492-1.964.712-2.945-.846.024-1.692.081-2.538.106C302.635,762.2,301.761,760.723,300.862,759.251Z" transform="translate(-271.657 -759.031)" fill="#d1aa67" stroke="#d1aa67" stroke-miterlimit="3.864" stroke-width="0.093" fill-rule="evenodd"/>
          <path id="Path_347" data-name="Path 347" d="M305.158,759.417c.354,1.037.736,2.074,1.118,3.112.846-.053,1.72-.134,2.6-.191-2.075,7.887-7.232,11.491-10.673,13.536-1.965-2.863-3.958-5.731-5.894-8.57a9.129,9.129,0,0,1-3.112,1.175c2.81,4.2,5.593,8.408,8.4,12.609a27.781,27.781,0,0,0,15.94-21.891A40.914,40.914,0,0,1,305.158,759.417Z" transform="translate(-287.363 -759.197)" fill="#d1aa67" stroke="#d1aa67" stroke-miterlimit="3.864" stroke-width="0.093" fill-rule="evenodd"/>
          <path id="Path_348" data-name="Path 348" d="M293.96,766.949a.818.818,0,0,1,0,1.635.827.827,0,0,1-.822-.846A.8.8,0,0,1,293.96,766.949Z" transform="translate(-275.261 -735.422)" fill="#d1aa67" stroke="#d1aa67" stroke-miterlimit="3.864" stroke-width="0.093" fill-rule="evenodd"/>
          <path id="Path_349" data-name="Path 349" d="M294.512,766.612a.8.8,0,0,1,.822.822.787.787,0,0,1-.822.817.8.8,0,0,1-.818-.817A.824.824,0,0,1,294.512,766.612Z" transform="translate(-273.553 -736.451)" fill="#d1aa67" stroke="#d1aa67" stroke-miterlimit="3.864" stroke-width="0.093" fill-rule="evenodd"/>
          <path id="Path_350" data-name="Path 350" d="M290.286,762.459c.407-.216.626-.134.655.248-.33.6-.63,1.2-.956,1.773.354.464.708.927,1.066,1.363.216-.325.407-.655.627-.98.244-.492.707-.463,1.066-.081-.793,1.692-1.611,3.384-2.4,5.076-.411.191-.573.082-.545-.329l.98-1.965a14.965,14.965,0,0,1-1.965-2.046S290.258,762.378,290.286,762.459Z" transform="translate(-288.538 -749.549)" fill="#d1aa67" fill-rule="evenodd"/>
          <path id="Path_351" data-name="Path 351" d="M294.1,773.93a.834.834,0,0,1,0,1.668v3a16.428,16.428,0,0,0,1.639.244c.244-1.554.464-3.112.683-4.665a2.325,2.325,0,0,0,2.237.024,19.886,19.886,0,0,0,4.857-3.819c-1.664-2.155-3.356-4.34-5.019-6.5-.765.655-1.529,1.281-2.294,1.912.793,1.062,1.558,2.1,2.347,3.136-1.391.956-2.782,1.912-4.177,2.9a3,3,0,0,0-.273-.521v2.619Zm0,1.668h0a.845.845,0,0,1-.817-.846.821.821,0,0,1,.817-.822v-2.619a18.541,18.541,0,0,0-1.965-2.7c-.134,3.14-.244,6.276-.382,9.416a21.293,21.293,0,0,0,2.347.573Z" transform="translate(-279.522 -744.807)" fill="#d1aa67" fill-rule="evenodd"/>
          <path id="Path_352" data-name="Path 352" d="M292.588,767.581l.956,1.009-.818.793-.138-.139v2.238l.874,1.2c.326-.52.655-1.013.98-1.5.411.464.793.928,1.2,1.391-.219.875-.468,1.745-.683,2.591.6.874,1.228,1.749,1.826,2.624.22-1.912.411-3.824.63-5.736l-4.832-7.013Zm-.956.626.818-.789.138.162v-2.538l-1.066-1.557s-2.017,3.575-2.156,3.767l3.221,4.23v-2.238Z" transform="translate(-286.829 -746.044)" fill="#d1aa67" fill-rule="evenodd"/>
          <g id="Group_227" data-name="Group 227" transform="translate(0 21.126)">
            <path id="Path_353" data-name="Path 353" d="M291.472,767.612l8.436,11.438-8.436,1.252v-3.355a6.637,6.637,0,0,0,4.12-.029s-2.237-3.055-4.12-5.593v-3.714Zm0,8.078a.851.851,0,0,0,1.094-.627,1.584,1.584,0,0,0-.846-1.639,1.118,1.118,0,0,0-.248-.11Zm-2.51-7.748c.028-1.176.053-2.376.11-3.551l2.4,3.221v3.714c-1.338-1.8-2.51-3.36-2.51-3.384Zm2.51,12.361-2.7.411c0-2.1-.028-4.23-.028-6.333a5.231,5.231,0,0,0,2.729,2.567V780.3Zm0-6.988a.833.833,0,0,0-1.09.6,1.584,1.584,0,0,0,.818,1.664.967.967,0,0,0,.272.11Z" transform="translate(-288.743 -764.391)" fill="#d1aa67" fill-rule="evenodd"/>
            <path id="Path_354" data-name="Path 354" d="M288.963,767.942c.028-1.176.053-2.376.11-3.551q5.4,7.327,10.836,14.659c-3.713.545-7.427,1.119-11.137,1.663,0-2.1-.028-4.23-.028-6.333,1.582,2.92,4.039,3.3,6.849,2.538,0,0-6.6-8.924-6.63-8.977Zm1.419,5.975a.861.861,0,0,1,1.338-.492,1.584,1.584,0,0,1,.846,1.639.886.886,0,0,1-1.367.517A1.584,1.584,0,0,1,290.382,773.917Z" transform="translate(-288.743 -764.391)" fill="#d1aa67" stroke="#d1aa67" stroke-miterlimit="3.864" stroke-width="0.093" fill-rule="evenodd"/>
          </g>
          <path id="Path_355" data-name="Path 355" d="M297.77,761.179a1.558,1.558,0,0,1,2.717-1.041c-.1.814-.224,1.611-.362,2.384a1.558,1.558,0,0,1-2.355-1.342Z" transform="translate(-261.053 -757.896)" fill="#d1aa67"/>
        </g>
      </g>
      <g id="Group_233" data-name="Group 233" transform="translate(0 0.419)">
        <g id="Group_230" data-name="Group 230" transform="translate(22.412 23.982)">
          <path id="Path_356" data-name="Path 356" d="M286.607,761.258a.639.639,0,0,0-.142.163c-.163.077-.3.212-.435.1-.272-.171-.484-.391-.756-.59a.421.421,0,0,1,.093-.517l1.281-1.452.037-2.18a24.379,24.379,0,0,0-2.766,3.526.451.451,0,0,0-.114.326v.081a4.051,4.051,0,0,0,1.948,2.574.875.875,0,0,0,.814.151ZM288,759.59c-.419.537-.944,1.1-1.391,1.668l-.041,2.184a.841.841,0,0,0,.305-.215c.919-1.049,1.391-1.558,2.339-2.607.911.972,1.607,1.8,2.518,2.774.447-.508,1.082-.907,1.525-1.448-.211-.358-4.12-4.739-4.12-4.739.5-.484,1.054-.992,1.72-1.582-.321-.387-.72-.883-1.041-1.273a17.5,17.5,0,0,0-3.128,2.433l-.037,2.18.334-.374C287.274,758.947,287.733,759.256,288,759.59Z" transform="translate(-283.804 -754.351)" fill="#d1aa67" fill-rule="evenodd"/>
          <path id="Path_357" data-name="Path 357" d="M288,759.59c-.447.619-1.086,1.236-1.533,1.831-.163.077-.3.212-.435.1-.273-.171-.484-.391-.757-.59a.421.421,0,0,1,.094-.517c.529-.618,1.086-1.208,1.615-1.826.293.358.752.666,1.017,1Zm5.255,2.355c-.443.541-1.078.939-1.525,1.448-.911-.972-1.607-1.8-2.518-2.774-.948,1.049-1.42,1.558-2.339,2.607a.748.748,0,0,1-1.119.065c-1.216-.761-2.306-2.387-1.835-2.982,2.721-3.994,4.015-4.681,5.894-5.958.321.39.72.886,1.041,1.273-.667.589-1.22,1.1-1.72,1.582C289.131,757.206,293.04,761.587,293.252,761.945Z" transform="translate(-283.803 -754.351)" fill="#d1aa67" stroke="#d1aa67" stroke-miterlimit="3.864" stroke-width="0.093" fill-rule="evenodd"/>
        </g>
        <g id="Group_232" data-name="Group 232">
          <path id="Path_358" data-name="Path 358" d="M288.528,779.288c-3.408-.057-6.821-.147-10.234-.2.041-.407.081-.81.13-1.2a2.152,2.152,0,0,0,1.053.3,2.115,2.115,0,0,0,.073-4.23,2.226,2.226,0,0,0-.472.045,38.734,38.734,0,0,1,9.534-18.21c.484.227,1,.455,1.513.683-.041-.6-.114-1.233-.159-1.834a19.194,19.194,0,0,1,4.47-4.263l.565.586c-.879,1.7-1.729,3.437-2.6,5.141,1.021,1.029,2.01,2.082,3.03,3.107-.586.757-1.171,1.509-1.761,2.29-.724-.667-1.477-1.306-2.2-1.977a30.371,30.371,0,0,0-6.089,9.315c1.253.183,2.566.045,3.819.228a21.492,21.492,0,0,1,3.157-5.7c.838.5,1.675,1.037,2.509,1.546a30.564,30.564,0,0,0-4.153,8.143c-2.095-.367-4.409-.7-6.532-1.07-.264.98-.525,1.956-.761,2.937.846-.012,1.692-.053,2.538-.065C286.807,776.311,287.653,777.8,288.528,779.288Z" transform="translate(-278.294 -742.575)" fill="#d1aa67" stroke="#d1aa67" stroke-miterlimit="3.864" stroke-width="0.093" fill-rule="evenodd"/>
          <path id="Path_359" data-name="Path 359" d="M289.937,773.772c-.338-1.041-.7-2.087-1.066-3.128-.846.037-1.721.106-2.595.143,2.209-7.85,7.431-11.361,10.9-13.35,1.916,2.9,3.856,5.8,5.744,8.672a9.154,9.154,0,0,1,3.132-1.119c-2.738-4.25-5.446-8.5-8.184-12.755a27.784,27.784,0,0,0-16.319,21.61A40.974,40.974,0,0,1,289.937,773.772Z" transform="translate(-268.294 -736.86)" fill="#d1aa67" stroke="#d1aa67" stroke-miterlimit="3.864" stroke-width="0.093" fill-rule="evenodd"/>
          <path id="Path_360" data-name="Path 360" d="M284.136,751.068a.82.82,0,0,1,.028-1.64.828.828,0,0,1,.8.863A.8.8,0,0,1,284.136,751.068Z" transform="translate(-262.846 -745.471)" fill="#d1aa67" stroke="#d1aa67" stroke-miterlimit="3.864" stroke-width="0.093" fill-rule="evenodd"/>
          <path id="Path_361" data-name="Path 361" d="M283.574,751.4a.805.805,0,0,1-.805-.834.789.789,0,0,1,.834-.805.806.806,0,0,1,.805.834A.826.826,0,0,1,283.574,751.4Z" transform="translate(-264.575 -744.472)" fill="#d1aa67" stroke="#d1aa67" stroke-miterlimit="3.864" stroke-width="0.093" fill-rule="evenodd"/>
          <path id="Path_362" data-name="Path 362" d="M289.436,760.12c-.415.212-.63.126-.651-.256.338-.594.647-1.187.985-1.757-.346-.468-.692-.94-1.037-1.383-.224.325-.423.647-.647.972-.252.488-.716.452-1.066.061.822-1.676,1.668-3.356,2.489-5.032.415-.183.574-.073.541.338l-1.017,1.948a14.584,14.584,0,0,1,1.928,2.078S289.46,760.206,289.436,760.12Z" transform="translate(-251.527 -735.617)" fill="#d1aa67" fill-rule="evenodd"/>
          <path id="Path_363" data-name="Path 363" d="M291.677,754.166a.828.828,0,0,1-.8-.863.816.816,0,0,1,.829-.8l.053-3a16.2,16.2,0,0,0-1.631-.277c-.273,1.555-.521,3.1-.765,4.658a2.322,2.322,0,0,0-2.237-.069,19.924,19.924,0,0,0-4.926,3.738c1.627,2.184,3.282,4.4,4.909,6.581.777-.642,1.55-1.257,2.326-1.871-.773-1.078-1.521-2.128-2.294-3.177,1.411-.931,2.819-1.863,4.226-2.823a3.012,3.012,0,0,0,.264.525l.045-2.619Zm.028-1.664h0a.842.842,0,0,1,.805.858.824.824,0,0,1-.834.806l-.045,2.619a18.86,18.86,0,0,0,1.916,2.738c.2-3.136.358-6.273.549-9.408a20.981,20.981,0,0,0-2.339-.614Z" transform="translate(-266.312 -746.096)" fill="#d1aa67" fill-rule="evenodd"/>
          <path id="Path_364" data-name="Path 364" d="M290.251,760.093l-.94-1.024.834-.781.134.142.037-2.241-.85-1.212c-.337.513-.671,1-1.009,1.48-.4-.468-.777-.939-1.176-1.412.232-.87.492-1.737.728-2.579-.586-.886-1.2-1.769-1.786-2.652-.252,1.9-.476,3.811-.728,5.719l4.71,7.1Zm.964-.61-.83.777-.134-.167-.045,2.538,1.037,1.575s2.083-3.539,2.221-3.73l-3.148-4.287-.037,2.241Z" transform="translate(-256.202 -744.283)" fill="#d1aa67" fill-rule="evenodd"/>
          <g id="Group_231" data-name="Group 231" transform="translate(28.891)">
            <path id="Path_365" data-name="Path 365" d="M293.629,761.507,285.4,749.923l8.456-1.106-.057,3.356a6.671,6.671,0,0,0-4.125-.045s2.184,3.1,4.023,5.666l-.065,3.714Zm.142-8.078a.849.849,0,0,0-1.1.61,1.58,1.58,0,0,0,.817,1.652,1.1,1.1,0,0,0,.244.114Zm2.375,7.794c-.049,1.175-.094,2.375-.171,3.547l-2.347-3.262.065-3.714c1.306,1.826,2.453,3.4,2.453,3.429Zm-2.294-12.406,2.709-.362c-.037,2.1-.049,4.23-.086,6.333a5.219,5.219,0,0,0-2.68-2.616l.057-3.356Zm-.122,6.988a.835.835,0,0,0,1.1-.582,1.6,1.6,0,0,0-.789-1.68,1.139,1.139,0,0,0-.273-.114Z" transform="translate(-285.397 -748.455)" fill="#d1aa67" fill-rule="evenodd"/>
            <path id="Path_366" data-name="Path 366" d="M296.147,761.223c-.049,1.175-.094,2.375-.171,3.547q-5.277-7.425-10.579-14.846c3.722-.48,7.443-.988,11.165-1.468-.037,2.1-.049,4.23-.086,6.333-1.529-2.949-3.978-3.376-6.8-2.661,0,0,6.451,9.043,6.476,9.1Zm-1.314-6a.862.862,0,0,1-1.347.468,1.58,1.58,0,0,1-.817-1.652.888.888,0,0,1,1.375-.5A1.6,1.6,0,0,1,294.834,755.223Z" transform="translate(-285.397 -748.455)" fill="#d1aa67" stroke="#d1aa67" stroke-miterlimit="3.864" stroke-width="0.093" fill-rule="evenodd"/>
          </g>
          <path id="Path_367" data-name="Path 367" d="M281.038,757.892a1.559,1.559,0,0,1-1.586,1.529,1.543,1.543,0,0,1-1.147-.533q.171-1.22.4-2.379a1.578,1.578,0,0,1,.8-.2A1.562,1.562,0,0,1,281.038,757.892Z" transform="translate(-278.26 -724.372)" fill="#d1aa67"/>
        </g>
      </g>
      <g id="Group_237" data-name="Group 237" transform="translate(0.358 41.883)">
        <g id="Group_234" data-name="Group 234" transform="translate(23.982 8.196)">
          <path id="Path_368" data-name="Path 368" d="M291.185,767.31a.6.6,0,0,0,.159.138c.081.167.216.305.1.44-.167.273-.391.484-.586.756a.42.42,0,0,1-.517-.093l-1.452-1.281-2.184-.037A24.413,24.413,0,0,0,290.237,770a.44.44,0,0,0,.326.114h.081a4.045,4.045,0,0,0,2.571-1.948.853.853,0,0,0,.15-.813Zm-1.668-1.391c.537.419,1.1.944,1.668,1.391l2.18.041a.784.784,0,0,0-.211-.305c-1.049-.919-1.558-1.391-2.607-2.339.972-.911,1.8-1.607,2.774-2.518-.513-.447-.911-1.082-1.448-1.525-.358.211-4.738,4.12-4.738,4.12-.484-.5-.993-1.053-1.582-1.72-.386.321-.887.72-1.273,1.041a17.477,17.477,0,0,0,2.428,3.128l2.184.037-.374-.334C288.874,766.643,289.183,766.183,289.517,765.919Z" transform="translate(-284.278 -760.664)" fill="#d1aa67" fill-rule="evenodd"/>
          <path id="Path_369" data-name="Path 369" d="M289.517,765.919c.618.448,1.237,1.086,1.826,1.529.081.167.216.305.1.44-.167.273-.391.484-.586.756a.42.42,0,0,1-.517-.093c-.618-.529-1.208-1.086-1.826-1.615.358-.293.667-.753,1-1.017Zm2.355-5.255c.537.443.936,1.078,1.448,1.525-.972.911-1.8,1.607-2.774,2.518,1.049.947,1.558,1.42,2.607,2.339a.749.749,0,0,1,.061,1.118c-.757,1.216-2.388,2.307-2.977,1.835-3.994-2.721-4.682-4.015-5.959-5.894.386-.321.887-.72,1.273-1.041.59.667,1.1,1.22,1.582,1.72C287.133,764.784,291.514,760.875,291.872,760.664Z" transform="translate(-284.278 -760.664)" fill="#d1aa67" stroke="#d1aa67" stroke-miterlimit="3.864" stroke-width="0.093" fill-rule="evenodd"/>
        </g>
        <g id="Group_236" data-name="Group 236">
          <path id="Path_370" data-name="Path 370" d="M309.215,771.187c-.061,3.408-.146,6.821-.207,10.234-.4-.041-.805-.081-1.2-.13a2.115,2.115,0,1,0-3.929-1.127,1.992,1.992,0,0,0,.045.472,38.718,38.718,0,0,1-18.21-9.534c.228-.484.456-1,.679-1.513-.6.041-1.228.114-1.83.159a19.1,19.1,0,0,1-4.262-4.47l.586-.566c1.7.879,3.433,1.729,5.141,2.6,1.025-1.02,2.083-2.009,3.108-3.03.757.586,1.509,1.172,2.29,1.761-.667.724-1.31,1.477-1.977,2.2a30.356,30.356,0,0,0,9.31,6.089c.187-1.253.045-2.567.232-3.82a21.5,21.5,0,0,1-5.7-3.156c.5-.838,1.037-1.676,1.542-2.514A30.666,30.666,0,0,0,302.975,769c-.366,2.1-.708,4.41-1.07,6.533.976.264,1.956.525,2.933.761-.012-.846-.049-1.692-.065-2.538C306.237,772.907,307.726,772.061,309.215,771.187Z" transform="translate(-272.501 -741.364)" fill="#d1aa67" stroke="#d1aa67" stroke-miterlimit="3.864" stroke-width="0.093" fill-rule="evenodd"/>
          <path id="Path_371" data-name="Path 371" d="M303.7,775.332c-1.045.337-2.087.7-3.132,1.066.04.846.106,1.72.146,2.6-7.85-2.209-11.361-7.431-13.349-10.905,2.9-1.916,5.8-3.856,8.672-5.744a9.151,9.151,0,0,1-1.119-3.132c-4.251,2.737-8.505,5.446-12.756,8.183a27.786,27.786,0,0,0,21.611,16.319A40.967,40.967,0,0,1,303.7,775.332Z" transform="translate(-266.787 -756.919)" fill="#d1aa67" stroke="#d1aa67" stroke-miterlimit="3.864" stroke-width="0.093" fill-rule="evenodd"/>
          <path id="Path_372" data-name="Path 372" d="M280.994,763.889a.82.82,0,0,1-1.639-.029.823.823,0,0,1,.858-.8A.8.8,0,0,1,280.994,763.889Z" transform="translate(-275.397 -745.121)" fill="#d1aa67" stroke="#d1aa67" stroke-miterlimit="3.864" stroke-width="0.093" fill-rule="evenodd"/>
          <path id="Path_373" data-name="Path 373" d="M281.318,764.455a.8.8,0,0,1-.834.8.785.785,0,0,1-.8-.834.8.8,0,0,1,.83-.805A.821.821,0,0,1,281.318,764.455Z" transform="translate(-274.399 -743.398)" fill="#d1aa67" stroke="#d1aa67" stroke-miterlimit="3.864" stroke-width="0.093" fill-rule="evenodd"/>
          <path id="Path_374" data-name="Path 374" d="M290.049,760.327c.211.415.126.63-.257.651-.594-.337-1.192-.647-1.757-.984-.472.346-.94.691-1.383,1.037.321.224.647.423.972.647.484.252.452.716.061,1.066-1.676-.821-3.356-1.667-5.032-2.489-.187-.415-.073-.578.334-.541l1.948,1.017a14.773,14.773,0,0,1,2.083-1.928S290.13,760.3,290.049,760.327Z" transform="translate(-265.546 -758.18)" fill="#d1aa67" fill-rule="evenodd"/>
          <path id="Path_375" data-name="Path 375" d="M284.093,764.086a.834.834,0,0,1-1.668-.028l-3-.053c-.118.54-.208,1.086-.273,1.631,1.55.273,3.1.521,4.653.765a2.334,2.334,0,0,0-.065,2.237,19.923,19.923,0,0,0,3.734,4.926c2.188-1.627,4.4-3.282,6.585-4.909-.643-.777-1.257-1.55-1.871-2.327-1.078.773-2.127,1.521-3.181,2.294-.931-1.411-1.859-2.818-2.819-4.226a3.165,3.165,0,0,0,.525-.264l-2.619-.045Zm-1.668-.028h0a.848.848,0,0,1,.862-.805.824.824,0,0,1,.805.833l2.619.045a18.845,18.845,0,0,0,2.733-1.916c-3.136-.191-6.272-.358-9.408-.55a20.964,20.964,0,0,0-.614,2.339Z" transform="translate(-276.023 -749.394)" fill="#d1aa67" fill-rule="evenodd"/>
          <path id="Path_376" data-name="Path 376" d="M290.024,762.549l-1.029.939-.777-.833.138-.134-2.237-.037-1.216.85c.512.338,1,.671,1.484,1.009-.472.4-.939.777-1.411,1.175-.871-.232-1.741-.492-2.583-.728-.883.586-1.765,1.2-2.652,1.786,1.908.252,3.815.475,5.723.728l7.1-4.71Zm-.614-.964.777.829-.163.134,2.538.045,1.574-1.037s-3.543-2.083-3.73-2.221l-4.287,3.148,2.237.037Z" transform="translate(-274.213 -756.542)" fill="#d1aa67" fill-rule="evenodd"/>
          <g id="Group_235" data-name="Group 235">
            <path id="Path_377" data-name="Path 377" d="M291.435,761.578l-11.584,8.233-1.106-8.453,3.356.057a6.67,6.67,0,0,0-.045,4.124s3.1-2.184,5.666-4.023l3.714.061Zm-8.078-.138a.847.847,0,0,0,.606,1.1,1.577,1.577,0,0,0,1.651-.818.934.934,0,0,0,.114-.245Zm7.794-2.375c1.171.049,2.371.094,3.547.171l-3.262,2.343-3.714-.061c1.826-1.306,3.4-2.453,3.429-2.453Zm-12.406,2.294-.362-2.709c2.1.037,4.23.049,6.329.086a5.228,5.228,0,0,0-2.611,2.68l-3.356-.057Zm6.984.122a.83.83,0,0,0-.581-1.1,1.591,1.591,0,0,0-1.676.789,1.113,1.113,0,0,0-.114.272Z" transform="translate(-278.382 -758.649)" fill="#d1aa67" fill-rule="evenodd"/>
            <path id="Path_378" data-name="Path 378" d="M291.15,759.064c1.171.049,2.371.094,3.547.171q-7.425,5.277-14.846,10.575c-.48-3.718-.989-7.44-1.469-11.162,2.1.037,4.23.049,6.329.086-2.945,1.529-3.372,3.978-2.656,6.8,0,0,9.038-6.451,9.1-6.475Zm-6,1.314a.858.858,0,0,1,.467,1.347,1.577,1.577,0,0,1-1.651.818.886.886,0,0,1-.492-1.375A1.591,1.591,0,0,1,285.147,760.378Z" transform="translate(-278.382 -758.649)" fill="#d1aa67" stroke="#d1aa67" stroke-miterlimit="3.864" stroke-width="0.093" fill-rule="evenodd"/>
          </g>
          <path id="Path_379" data-name="Path 379" d="M287.816,767.814a1.557,1.557,0,0,1,1,2.733c-.814-.114-1.6-.249-2.376-.4a1.538,1.538,0,0,1-.2-.8A1.555,1.555,0,0,1,287.816,767.814Z" transform="translate(-254.3 -730.535)" fill="#d1aa67"/>
        </g>
      </g>
      <g id="Group_241" data-name="Group 241" transform="translate(44.051)">
        <g id="Group_238" data-name="Group 238" transform="translate(4.053 22.298)">
          <path id="Path_380" data-name="Path 380" d="M292.359,756.645a.808.808,0,0,0-.163-.138c-.081-.163-.22-.3-.11-.436.162-.272.382-.492.573-.765a.424.424,0,0,1,.521.082l1.473,1.257h2.184a24.3,24.3,0,0,0-3.575-2.7.439.439,0,0,0-.329-.11h-.081a4.074,4.074,0,0,0-2.538,1.993.874.874,0,0,0-.138.818Zm1.692,1.363c-.545-.407-1.118-.927-1.692-1.363h-2.185a.88.88,0,0,0,.22.3c1.066.9,1.582,1.362,2.648,2.289-.956.932-1.774,1.639-2.729,2.567.517.44.927,1.066,1.472,1.5.358-.216,4.67-4.2,4.67-4.2.492.492,1.009,1.037,1.611,1.692.382-.329.87-.736,1.253-1.065a17.716,17.716,0,0,0-2.481-3.084h-2.184l.382.33C294.681,757.271,294.38,757.735,294.051,758.007Z" transform="translate(-290.108 -753.834)" fill="#d1aa67" fill-rule="evenodd"/>
          <path id="Path_381" data-name="Path 381" d="M294.064,758c-.626-.435-1.253-1.061-1.855-1.5-.081-.163-.22-.3-.11-.436.163-.272.382-.492.573-.765a.423.423,0,0,1,.52.081c.627.521,1.229,1.066,1.855,1.586-.354.3-.655.761-.985,1.033Zm-2.265,5.3c-.545-.435-.956-1.062-1.473-1.5.956-.927,1.774-1.635,2.729-2.566-1.066-.928-1.582-1.392-2.648-2.29a.752.752,0,0,1-.082-1.119c.736-1.228,2.347-2.346,2.949-1.883,4.039,2.648,4.747,3.929,6.056,5.784-.382.33-.87.736-1.253,1.066-.6-.655-1.119-1.2-1.611-1.692C296.468,759.1,292.156,763.085,291.8,763.3Z" transform="translate(-290.12 -753.832)" fill="#d1aa67" stroke="#d1aa67" stroke-miterlimit="3.864" stroke-width="0.093" fill-rule="evenodd"/>
        </g>
        <g id="Group_240" data-name="Group 240">
          <path id="Path_382" data-name="Path 382" d="M289.178,758.585c0-3.412.024-6.825.024-10.234.407.029.81.065,1.208.106a2.115,2.115,0,1,0,3.945,1.057,2.194,2.194,0,0,0-.053-.468,38.743,38.743,0,0,1,18.373,9.209c-.215.492-.435,1.013-.655,1.53.6-.053,1.228-.134,1.83-.192a19.044,19.044,0,0,1,4.34,4.4l-.574.573c-1.721-.846-3.465-1.668-5.186-2.514-1.009,1.037-2.046,2.046-3.059,3.083-.761-.57-1.525-1.143-2.318-1.717.655-.736,1.281-1.5,1.94-2.241a30.472,30.472,0,0,0-9.42-5.922c-.163,1.257,0,2.566-.163,3.824a21.526,21.526,0,0,1,5.759,3.055c-.492.846-1.009,1.692-1.5,2.538a30.771,30.771,0,0,0-8.216-4.011c.329-2.1.63-4.421.956-6.548-.984-.248-1.965-.492-2.949-.712.029.846.082,1.692.11,2.538C292.123,756.813,290.65,757.687,289.178,758.585Z" transform="translate(-288.958 -748.352)" fill="#d1aa67" stroke="#d1aa67" stroke-miterlimit="3.864" stroke-width="0.093" fill-rule="evenodd"/>
          <path id="Path_383" data-name="Path 383" d="M289.344,759.992c1.037-.354,2.074-.736,3.112-1.118-.057-.846-.138-1.721-.191-2.6,7.887,2.075,11.491,7.232,13.537,10.673-2.863,1.965-5.731,3.958-8.57,5.894a9.132,9.132,0,0,1,1.176,3.112c4.2-2.811,8.4-5.593,12.609-8.4a27.784,27.784,0,0,0-21.891-15.94A40.957,40.957,0,0,1,289.344,759.992Z" transform="translate(-289.124 -738.349)" fill="#d1aa67" stroke="#d1aa67" stroke-miterlimit="3.864" stroke-width="0.093" fill-rule="evenodd"/>
          <path id="Path_384" data-name="Path 384" d="M296.876,754.067a.818.818,0,0,1,1.635,0,.83.83,0,0,1-.846.822A.8.8,0,0,1,296.876,754.067Z" transform="translate(-265.349 -733.327)" fill="#d1aa67" stroke="#d1aa67" stroke-miterlimit="3.864" stroke-width="0.093" fill-rule="evenodd"/>
          <path id="Path_385" data-name="Path 385" d="M296.539,753.512a.8.8,0,0,1,.818-.818.792.792,0,0,1,.822.818.807.807,0,0,1-.822.821A.821.821,0,0,1,296.539,753.512Z" transform="translate(-266.378 -735.037)" fill="#d1aa67" stroke="#d1aa67" stroke-miterlimit="3.864" stroke-width="0.093" fill-rule="evenodd"/>
          <path id="Path_386" data-name="Path 386" d="M292.388,759.471c-.22-.407-.134-.626.244-.655.6.33,1.2.631,1.777.956.464-.354.927-.708,1.363-1.066-.326-.216-.655-.407-.98-.626-.492-.244-.464-.708-.085-1.065,1.7.793,3.388,1.611,5.08,2.4.191.411.081.574-.33.545l-1.965-.98a15.243,15.243,0,0,1-2.046,1.965S292.306,759.5,292.388,759.471Z" transform="translate(-279.478 -721.781)" fill="#d1aa67" fill-rule="evenodd"/>
          <path id="Path_387" data-name="Path 387" d="M303.858,761.566a.832.832,0,0,1,1.664,0h3.006q.159-.824.244-1.64c-1.558-.244-3.112-.464-4.67-.683a2.313,2.313,0,0,0,.029-2.237,19.891,19.891,0,0,0-3.819-4.856c-2.156,1.663-4.34,3.355-6.5,5.019.655.765,1.281,1.529,1.908,2.294,1.066-.793,2.1-1.558,3.14-2.347.956,1.391,1.912,2.782,2.892,4.177a2.936,2.936,0,0,0-.516.273Zm1.664,0h0a.842.842,0,0,1-.846.818.82.82,0,0,1-.818-.818h-2.619a18.506,18.506,0,0,0-2.7,1.965c3.14.134,6.28.244,9.42.382a22.15,22.15,0,0,0,.574-2.347Z" transform="translate(-274.734 -736.701)" fill="#d1aa67" fill-rule="evenodd"/>
          <path id="Path_388" data-name="Path 388" d="M297.508,760.276l1.009-.956.789.818-.134.138h2.237l1.2-.875c-.517-.325-1.009-.655-1.5-.98.464-.411.932-.793,1.4-1.2.87.219,1.745.463,2.591.683.874-.6,1.749-1.228,2.62-1.826-1.908-.22-3.819-.411-5.731-.631l-7.012,4.833Zm.626.956-.793-.818.167-.138H294.97l-1.558,1.065s3.575,2.018,3.767,2.156l4.23-3.222h-2.237Z" transform="translate(-275.971 -726.597)" fill="#d1aa67" fill-rule="evenodd"/>
          <g id="Group_239" data-name="Group 239" transform="translate(21.127 28.273)">
            <path id="Path_389" data-name="Path 389" d="M297.539,763.739l11.434-8.436,1.257,8.436h-3.356a6.633,6.633,0,0,0-.029-4.12s-3.059,2.237-5.6,4.12Zm8.078,0a.852.852,0,0,0-.627-1.094,1.585,1.585,0,0,0-1.639.846,1.2,1.2,0,0,0-.11.249Zm-7.753,2.509c-1.171-.028-2.375-.052-3.547-.11l3.221-2.4h3.71c-1.8,1.338-3.356,2.509-3.384,2.509Zm12.365-2.509.411,2.7c-2.1,0-4.23.028-6.333.028a5.243,5.243,0,0,0,2.567-2.729Zm-6.988,0a.833.833,0,0,0,.6,1.09,1.594,1.594,0,0,0,1.663-.818,1.092,1.092,0,0,0,.11-.272Z" transform="translate(-294.318 -755.303)" fill="#d1aa67" fill-rule="evenodd"/>
            <path id="Path_390" data-name="Path 390" d="M297.865,766.249c-1.171-.028-2.375-.052-3.547-.11q7.328-5.4,14.655-10.836c.549,3.714,1.123,7.427,1.668,11.137-2.1,0-4.23.028-6.333.028,2.921-1.582,3.3-4.039,2.538-6.849,0,0-8.924,6.6-8.981,6.63Zm5.979-1.42a.861.861,0,0,1-.492-1.339,1.585,1.585,0,0,1,1.639-.846.887.887,0,0,1,.517,1.366A1.594,1.594,0,0,1,303.844,764.829Z" transform="translate(-294.318 -755.303)" fill="#d1aa67" stroke="#d1aa67" stroke-miterlimit="3.864" stroke-width="0.093" fill-rule="evenodd"/>
          </g>
          <path id="Path_391" data-name="Path 391" d="M291.106,751.07a1.558,1.558,0,0,1-1.041-2.717q1.22.153,2.383.362a1.563,1.563,0,0,1-1.342,2.355Z" transform="translate(-287.823 -748.349)" fill="#d1aa67"/>
        </g>
      </g>
      <g id="Group_243" data-name="Group 243" transform="translate(30.286 30.327)">
        <g id="Group_242" data-name="Group 242" transform="translate(3.848 3.86)">
          <path id="Path_392" data-name="Path 392" d="M286.686,763.558a6.8,6.8,0,1,1,6.8,6.8A6.8,6.8,0,0,1,286.686,763.558Z" transform="translate(-286.686 -756.757)" fill="#d1aa67"/>
          <path id="Path_393" data-name="Path 393" d="M288.358,758.429" transform="translate(-281.557 -751.628)" fill="#d1aa67"/>
        </g>
        <path id="Path_394" data-name="Path 394" d="M288.726,766.469a7.661,7.661,0,1,1,7.663,7.659A7.66,7.66,0,0,1,288.726,766.469Zm6.764-8.525.887-2.136.643,2.078,1.07-1.912.325,2.16,1.529-1.7-.053,2.216,1.753-1.419-.439,2.156,1.973-1.123-.822,2.083,2.078-.85-1.123,2,2.274-.411-1.5,1.615,2.245.025-1.728,1.452,2.274.359-2,1.041,2.164.87-2.164.716,2,1.176-2.274.272,1.757,1.534-2.245-.029,1.448,1.7-2.245-.468,1.18,1.973-2.054-.826.74,2.164-1.944-1.151.439,2.193-1.81-1.448.081,2.217-1.448-1.81-.354,2.327-1.094-2.054-.671,2.192-.805-2.192-1.151,2-.358-2.274-1.4,1.753.024-2.3-1.8,1.534.545-2.245-1.94,1.094.765-2.135-2.083.822,1.176-1.944-2.1.467,1.424-1.7-2.192.028,1.668-1.367-2.184-.329,1.912-1.233-2.136-.659,2.164-.87-1.912-.989,2.156-.387-1.7-1.419,2.245.024-1.5-1.749,2.213.492-1.147-1.887,2.131.793-.87-2.079,1.94,1.037-.464-2.1,1.773,1.419-.053-2.217,1.424,1.777.329-2.293Z" transform="translate(-285.74 -755.808)" fill="#d1aa67" fill-rule="evenodd"/>
      </g>
    </g>
  </g>
</svg>
