<svg xmlns="http://www.w3.org/2000/svg" width="160.897" height="182.538" viewBox="0 0 160.897 182.538">
  <g id="Group_561" data-name="Group 561" transform="translate(-1653.503 -833.4)">
    <g id="Group_506" data-name="Group 506" transform="translate(1295.585 538.242)">
      <g id="Group_467" data-name="Group 467" transform="translate(357.918 434.122)">
        <g id="Group_464" data-name="Group 464">
          <g id="Group_457" data-name="Group 457" transform="translate(0 0.343)">
            <path id="Path_515" data-name="Path 515" d="M357.918,671.212a12.151,12.151,0,0,1,12.464-12.464,11.954,11.954,0,0,1,10.272,5.547l-4.725,2.74a6.2,6.2,0,0,0-5.547-2.945c-4.246,0-6.985,2.842-6.985,7.122s2.739,7.122,6.985,7.122a6.158,6.158,0,0,0,5.547-2.945l4.725,2.739a11.869,11.869,0,0,1-10.272,5.547A12.151,12.151,0,0,1,357.918,671.212Z" transform="translate(-357.918 -658.748)" fill="#ff4148"/>
          </g>
          <g id="Group_458" data-name="Group 458" transform="translate(24.964)">
            <path id="Path_516" data-name="Path 516" d="M423.073,660.936a3.082,3.082,0,1,1,3.082,3.082A3.113,3.113,0,0,1,423.073,660.936Zm.513,4.589h5.136v17.121h-5.136Z" transform="translate(-423.073 -657.854)" fill="#ff4148"/>
          </g>
          <g id="Group_459" data-name="Group 459" transform="translate(34.38 7.328)">
            <path id="Path_517" data-name="Path 517" d="M457.922,676.979V682.8c-2.123-.342-5.136.514-5.136,3.9v7.738H447.65V677.322h5.136v3.048A5.142,5.142,0,0,1,457.922,676.979Z" transform="translate(-447.65 -676.979)" fill="#ff4148"/>
          </g>
          <g id="Group_460" data-name="Group 460" transform="translate(45.681 7.191)">
            <path id="Path_518" data-name="Path 518" d="M477.145,685.662A9.056,9.056,0,0,1,493.958,681l-4.486,2.6a3.545,3.545,0,0,0-3.322-1.918,3.973,3.973,0,0,0,0,7.944,3.51,3.51,0,0,0,3.322-1.918l4.486,2.568a8.741,8.741,0,0,1-7.739,4.417A8.87,8.87,0,0,1,477.145,685.662Z" transform="translate(-477.145 -676.622)" fill="#ff4148"/>
          </g>
          <g id="Group_461" data-name="Group 461" transform="translate(64.48 7.67)">
            <path id="Path_519" data-name="Path 519" d="M542.646,677.873v17.121H537.51v-1.609a5.855,5.855,0,0,1-4.9,2.089c-3.458,0-6.4-2.466-6.4-7.088V677.873h5.137v9.759a2.824,2.824,0,0,0,2.979,3.116c1.883,0,3.184-1.1,3.184-3.527v-9.348Z" transform="translate(-526.21 -677.873)" fill="#ff4148"/>
          </g>
          <g id="Group_462" data-name="Group 462" transform="translate(84.684 7.191)">
            <path id="Path_520" data-name="Path 520" d="M604.624,683.71v10.512h-5.136V684.155c0-1.712-.822-2.808-2.465-2.808-1.712,0-2.671,1.2-2.671,3.219v9.656h-5.137V684.155c0-1.712-.821-2.808-2.465-2.808-1.712,0-2.671,1.2-2.671,3.219v9.656h-5.136V677.1h5.136v1.575a5.256,5.256,0,0,1,4.589-2.055,5.094,5.094,0,0,1,4.485,2.26,5.639,5.639,0,0,1,4.965-2.26C602.056,676.622,604.624,679.43,604.624,683.71Z" transform="translate(-578.943 -676.622)" fill="#ff4148"/>
          </g>
          <g id="Group_463" data-name="Group 463" transform="translate(121.598 0.343)">
            <path id="Path_521" data-name="Path 521" d="M675.29,671.212a12.151,12.151,0,0,1,12.464-12.464,11.954,11.954,0,0,1,10.272,5.547l-4.725,2.74a6.2,6.2,0,0,0-5.547-2.945c-4.246,0-6.985,2.842-6.985,7.122s2.74,7.122,6.985,7.122a6.158,6.158,0,0,0,5.547-2.945l4.725,2.739a11.87,11.87,0,0,1-10.272,5.547A12.151,12.151,0,0,1,675.29,671.212Z" transform="translate(-675.29 -658.748)" fill="#ff4148"/>
          </g>
        </g>
        <g id="Group_466" data-name="Group 466" transform="translate(145.164 0.609)">
          <g id="Group_465" data-name="Group 465">
            <path id="Path_522" data-name="Path 522" d="M740.709,663.2a1.826,1.826,0,0,1-2,1.831,1.96,1.96,0,0,1-1.917-1.174l1.08-.626a.787.787,0,0,0,.837.579c.516,0,.743-.273.743-.61s-.227-.61-.743-.61h-.258l-.477-.712.993-1.26h-2v-1.174h3.521v1.017l-.947,1.2A1.611,1.611,0,0,1,740.709,663.2Z" transform="translate(-736.797 -659.444)" fill="#737678"/>
          </g>
        </g>
      </g>
      <g id="Group_477" data-name="Group 477" transform="translate(358.165 299.122)">
        <g id="Group_469" data-name="Group 469" transform="translate(82.857 0)">
          <g id="Group_468" data-name="Group 468">
            <path id="Path_523" data-name="Path 523" d="M574.819,348.473a27.381,27.381,0,0,1,37.539,1.627l25.356-25.99a63.7,63.7,0,0,0-62.9-16.036Z" transform="translate(-574.819 -305.505)" fill="#ff4148"/>
          </g>
        </g>
        <g id="Group_471" data-name="Group 471" transform="translate(82.857 82.983)">
          <g id="Group_470" data-name="Group 470">
            <path id="Path_524" data-name="Path 524" d="M637.439,546.631,612.2,522.092a27.386,27.386,0,0,1-37.38,1.46v40.4a63.672,63.672,0,0,0,63.362-16.52Z" transform="translate(-574.819 -522.092)" fill="#ff4148"/>
          </g>
        </g>
        <g id="Group_473" data-name="Group 473" transform="translate(34.928 35.24)">
          <g id="Group_472" data-name="Group 472">
            <path id="Path_525" data-name="Path 525" d="M488.676,425.945a28.377,28.377,0,0,1,8.989-20.748,28.464,28.464,0,1,0,0,41.5A28.377,28.377,0,0,1,488.676,425.945Z" transform="translate(-449.725 -397.481)" fill="#fab943"/>
          </g>
        </g>
        <g id="Group_476" data-name="Group 476" transform="translate(0 61.203)">
          <g id="Group_475" data-name="Group 475">
            <g id="Group_474" data-name="Group 474">
              <path id="Path_526" data-name="Path 526" d="M426.362,528.814c-34.106,0-67.8-29.462-67.8-63.569v63.626h83.663" transform="translate(-358.563 -465.245)" fill="#737678"/>
            </g>
          </g>
        </g>
      </g>
      <g id="Group_479" data-name="Group 479" transform="translate(506.628 300.347)">
        <g id="Group_478" data-name="Group 478" transform="translate(0 0)">
          <path id="Path_527" data-name="Path 527" d="M748.82,314.214h-.891v2.7h-1.876V308.7h3.283a2.808,2.808,0,0,1,2.815,2.815,2.7,2.7,0,0,1-1.513,2.38l1.747,3.014h-2.017Zm-.891-1.642h1.407a1.063,1.063,0,0,0,0-2.111h-1.407Z" transform="translate(-746.052 -308.702)" fill="#737678"/>
        </g>
      </g>
      <g id="Group_481" data-name="Group 481" transform="translate(499.888 295.158)">
        <g id="Group_480" data-name="Group 480" transform="translate(0 0)">
          <path id="Path_528" data-name="Path 528" d="M737.924,314.085a9.464,9.464,0,1,1,9.463-9.464A9.474,9.474,0,0,1,737.924,314.085Zm0-17.149a7.685,7.685,0,1,0,7.685,7.685A7.694,7.694,0,0,0,737.924,296.937Z" transform="translate(-728.461 -295.158)" fill="#737678"/>
        </g>
      </g>
      <g id="Group_505" data-name="Group 505" transform="translate(358.105 466.63)">
        <g id="Group_482" data-name="Group 482" transform="translate(0 0.108)">
          <path id="Path_529" data-name="Path 529" d="M358.406,747.325a4.267,4.267,0,0,1,4.379-4.342A4.109,4.109,0,0,1,366.393,745l-.565.325a3.431,3.431,0,0,0-3.043-1.732,3.729,3.729,0,1,0,0,7.457,3.437,3.437,0,0,0,3.067-1.768l.565.325a4.11,4.11,0,0,1-3.632,2.057A4.267,4.267,0,0,1,358.406,747.325Z" transform="translate(-358.406 -742.983)" fill="#737678"/>
        </g>
        <g id="Group_483" data-name="Group 483" transform="translate(9.394 2.562)">
          <path id="Path_530" data-name="Path 530" d="M385.535,749.387v.577a1.947,1.947,0,0,0-2.008,2.177v3.344h-.6v-6.014h.6v1.179A2.024,2.024,0,0,1,385.535,749.387Z" transform="translate(-382.925 -749.387)" fill="#737678"/>
        </g>
        <g id="Group_484" data-name="Group 484" transform="translate(12.449 2.514)">
          <path id="Path_531" data-name="Path 531" d="M396.984,752.425c0,.1-.012.193-.012.289h-5.449a2.448,2.448,0,0,0,2.55,2.249,2.289,2.289,0,0,0,2.081-1.095l.529.313a2.963,2.963,0,0,1-2.622,1.359,3.146,3.146,0,1,1,2.923-3.115Zm-5.461-.3h4.835a2.336,2.336,0,0,0-2.346-2.286A2.424,2.424,0,0,0,391.524,752.125Z" transform="translate(-390.898 -749.262)" fill="#737678"/>
        </g>
        <g id="Group_485" data-name="Group 485" transform="translate(19.534 2.514)">
          <path id="Path_532" data-name="Path 532" d="M415.7,749.394v6.014h-.613v-1.359a2.892,2.892,0,0,1-2.586,1.491,3.139,3.139,0,0,1,0-6.279,2.892,2.892,0,0,1,2.586,1.492v-1.359Zm-.613,3.007a2.544,2.544,0,1,0-2.538,2.562A2.521,2.521,0,0,0,415.091,752.4Z" transform="translate(-409.389 -749.262)" fill="#737678"/>
        </g>
        <g id="Group_486" data-name="Group 486" transform="translate(27.051 0.962)">
          <path id="Path_533" data-name="Path 533" d="M430.946,747.485v3.909c0,1.059.565,1.083,1.792.974v.541c-1.576.241-2.405-.144-2.405-1.516v-3.909H429.01V746.9h1.323v-1.5l.613-.18V746.9h1.792v.589Z" transform="translate(-429.01 -745.212)" fill="#737678"/>
        </g>
        <g id="Group_487" data-name="Group 487" transform="translate(31.454 2.514)">
          <path id="Path_534" data-name="Path 534" d="M446.586,752.425c0,.1-.012.193-.012.289h-5.449a2.448,2.448,0,0,0,2.55,2.249,2.288,2.288,0,0,0,2.081-1.095l.529.313a2.964,2.964,0,0,1-2.622,1.359,3.146,3.146,0,1,1,2.923-3.115Zm-5.461-.3h4.835a2.335,2.335,0,0,0-2.346-2.286A2.424,2.424,0,0,0,441.125,752.125Z" transform="translate(-440.5 -749.262)" fill="#737678"/>
        </g>
        <g id="Group_488" data-name="Group 488" transform="translate(42.279)">
          <path id="Path_535" data-name="Path 535" d="M468.753,742.7h.6v11.066h-.6Z" transform="translate(-468.753 -742.701)" fill="#737678"/>
        </g>
        <g id="Group_489" data-name="Group 489" transform="translate(47.703 0.108)">
          <path id="Path_536" data-name="Path 536" d="M482.911,747.325a4.267,4.267,0,0,1,4.378-4.342A4.109,4.109,0,0,1,490.9,745l-.565.325a3.431,3.431,0,0,0-3.043-1.732,3.729,3.729,0,1,0,0,7.457,3.437,3.437,0,0,0,3.067-1.768l.565.325a4.111,4.111,0,0,1-3.633,2.057A4.267,4.267,0,0,1,482.911,747.325Z" transform="translate(-482.911 -742.983)" fill="#737678"/>
        </g>
        <g id="Group_490" data-name="Group 490" transform="translate(57.097 2.562)">
          <path id="Path_537" data-name="Path 537" d="M510.039,749.387v.577a1.947,1.947,0,0,0-2.009,2.177v3.344h-.6v-6.014h.6v1.179A2.024,2.024,0,0,1,510.039,749.387Z" transform="translate(-507.429 -749.387)" fill="#737678"/>
        </g>
        <g id="Group_491" data-name="Group 491" transform="translate(60.152 2.514)">
          <path id="Path_538" data-name="Path 538" d="M521.49,752.425c0,.1-.012.193-.012.289h-5.449a2.448,2.448,0,0,0,2.55,2.249,2.288,2.288,0,0,0,2.081-1.095l.53.313a2.964,2.964,0,0,1-2.622,1.359,3.146,3.146,0,1,1,2.923-3.115Zm-5.461-.3h4.835a2.335,2.335,0,0,0-2.346-2.286A2.424,2.424,0,0,0,516.029,752.125Z" transform="translate(-515.404 -749.262)" fill="#737678"/>
        </g>
        <g id="Group_492" data-name="Group 492" transform="translate(67.237 2.514)">
          <path id="Path_539" data-name="Path 539" d="M540.209,749.394v6.014H539.6v-1.359a2.892,2.892,0,0,1-2.586,1.491,3.139,3.139,0,0,1,0-6.279,2.892,2.892,0,0,1,2.586,1.492v-1.359ZM539.6,752.4a2.544,2.544,0,1,0-2.538,2.562A2.521,2.521,0,0,0,539.6,752.4Z" transform="translate(-533.894 -749.262)" fill="#737678"/>
        </g>
        <g id="Group_493" data-name="Group 493" transform="translate(74.754 0.962)">
          <path id="Path_540" data-name="Path 540" d="M555.451,747.485v3.909c0,1.059.565,1.083,1.792.974v.541c-1.576.241-2.406-.144-2.406-1.516v-3.909h-1.323V746.9h1.323v-1.5l.614-.18V746.9h1.792v.589Z" transform="translate(-553.514 -745.212)" fill="#737678"/>
        </g>
        <g id="Group_494" data-name="Group 494" transform="translate(79.746 0.24)">
          <path id="Path_541" data-name="Path 541" d="M566.542,743.8a.481.481,0,1,1,.481.481A.48.48,0,0,1,566.542,743.8Zm.18,1.936h.6v6.014h-.6Z" transform="translate(-566.542 -743.328)" fill="#737678"/>
        </g>
        <g id="Group_495" data-name="Group 495" transform="translate(81.61 2.646)">
          <path id="Path_542" data-name="Path 542" d="M577.23,749.607l-2.538,6.014h-.734l-2.55-6.014h.649L574.319,755l2.273-5.389Z" transform="translate(-571.408 -749.607)" fill="#737678"/>
        </g>
        <g id="Group_496" data-name="Group 496" transform="translate(87.877 2.514)">
          <path id="Path_543" data-name="Path 543" d="M593.85,752.425c0,.1-.012.193-.012.289h-5.449a2.448,2.448,0,0,0,2.55,2.249,2.288,2.288,0,0,0,2.081-1.095l.529.313a2.964,2.964,0,0,1-2.622,1.359,3.146,3.146,0,1,1,2.923-3.115Zm-5.461-.3h4.835a2.335,2.335,0,0,0-2.346-2.286A2.424,2.424,0,0,0,588.389,752.125Z" transform="translate(-587.764 -749.262)" fill="#737678"/>
        </g>
        <g id="Group_497" data-name="Group 497" transform="translate(98.702)">
          <path id="Path_544" data-name="Path 544" d="M616.018,742.7h.6v11.066h-.6Z" transform="translate(-616.018 -742.701)" fill="#737678"/>
        </g>
        <g id="Group_498" data-name="Group 498" transform="translate(104.126 0.108)">
          <path id="Path_545" data-name="Path 545" d="M630.176,747.325a4.267,4.267,0,0,1,4.378-4.342A4.109,4.109,0,0,1,638.163,745l-.565.325a3.431,3.431,0,0,0-3.043-1.732,3.729,3.729,0,1,0,0,7.457,3.438,3.438,0,0,0,3.067-1.768l.565.325a4.111,4.111,0,0,1-3.633,2.057A4.267,4.267,0,0,1,630.176,747.325Z" transform="translate(-630.176 -742.983)" fill="#737678"/>
        </g>
        <g id="Group_499" data-name="Group 499" transform="translate(113.051 2.514)">
          <path id="Path_546" data-name="Path 546" d="M653.47,752.4a3.158,3.158,0,1,1,3.163,3.139A3.116,3.116,0,0,1,653.47,752.4Zm5.7,0a2.544,2.544,0,1,0-2.538,2.562A2.521,2.521,0,0,0,659.172,752.4Z" transform="translate(-653.47 -749.262)" fill="#737678"/>
        </g>
        <g id="Group_500" data-name="Group 500" transform="translate(120.809 2.514)">
          <path id="Path_547" data-name="Path 547" d="M678.806,751.668v3.741h-.613v-3.741a1.66,1.66,0,0,0-1.768-1.828c-1.179,0-2.1.77-2.1,2.393v3.176h-.6v-6.014h.6v1.143a2.265,2.265,0,0,1,2.153-1.275A2.217,2.217,0,0,1,678.806,751.668Z" transform="translate(-673.718 -749.262)" fill="#737678"/>
        </g>
        <g id="Group_501" data-name="Group 501" transform="translate(126.944 0.962)">
          <path id="Path_548" data-name="Path 548" d="M691.666,747.485v3.909c0,1.059.565,1.083,1.792.974v.541c-1.576.241-2.406-.144-2.406-1.516v-3.909h-1.323V746.9h1.323v-1.5l.614-.18V746.9h1.792v.589Z" transform="translate(-689.729 -745.212)" fill="#737678"/>
        </g>
        <g id="Group_502" data-name="Group 502" transform="translate(131.346 2.514)">
          <path id="Path_549" data-name="Path 549" d="M707.305,752.425c0,.1-.012.193-.012.289h-5.449a2.448,2.448,0,0,0,2.55,2.249,2.289,2.289,0,0,0,2.081-1.095l.529.313a2.964,2.964,0,0,1-2.622,1.359,3.146,3.146,0,1,1,2.923-3.115Zm-5.46-.3h4.835a2.335,2.335,0,0,0-2.346-2.286A2.424,2.424,0,0,0,701.845,752.125Z" transform="translate(-701.219 -749.262)" fill="#737678"/>
        </g>
        <g id="Group_503" data-name="Group 503" transform="translate(138.839 2.514)">
          <path id="Path_550" data-name="Path 550" d="M725.865,751.668v3.741h-.614v-3.741a1.66,1.66,0,0,0-1.768-1.828c-1.179,0-2.1.77-2.1,2.393v3.176h-.6v-6.014h.6v1.143a2.265,2.265,0,0,1,2.153-1.275A2.217,2.217,0,0,1,725.865,751.668Z" transform="translate(-720.777 -749.262)" fill="#737678"/>
        </g>
        <g id="Group_504" data-name="Group 504" transform="translate(144.974 0.962)">
          <path id="Path_551" data-name="Path 551" d="M738.724,747.485v3.909c0,1.059.565,1.083,1.792.974v.541c-1.575.241-2.405-.144-2.405-1.516v-3.909h-1.323V746.9h1.323v-1.5l.613-.18V746.9h1.792v.589Z" transform="translate(-736.788 -745.212)" fill="#737678"/>
        </g>
      </g>
    </g>
  </g>
</svg>
