<svg xmlns="http://www.w3.org/2000/svg" width="19.573" height="19.981" viewBox="0 0 19.573 19.981">
  <g id="Group_552" data-name="Group 552" transform="translate(-177.989 -752.694)">
    <path id="Path_174" data-name="Path 174" d="M2018.089,1187.579v.408a9.786,9.786,0,0,1-8.581,9.712,9.6,9.6,0,0,1-1.2.074,9.772,9.772,0,0,1-9.786-9.786v-.408a9.786,9.786,0,0,1,19.573,0Z" transform="translate(-1820.527 -425.099)" fill="#707070"/>
    <path id="Path_175" data-name="Path 175" d="M2102.942,1281.507v1.548h2.352l-.379,2.575h-1.973v6.08a9.594,9.594,0,0,1-1.2.074,9.883,9.883,0,0,1-1.527-.118v-6.036h-2.252l.044-2.575h2.208v-2.227c0-1.651,1.486-3.6,5.084-2.79v2.163l-1.092.02A1.221,1.221,0,0,0,2102.942,1281.507Z" transform="translate(-1913.962 -519.11)" fill="#fff"/>
  </g>
</svg>
