<svg xmlns="http://www.w3.org/2000/svg" xmlns:xlink="http://www.w3.org/1999/xlink" width="77" height="75" viewBox="0 0 77 75">
  <defs>
    <clipPath id="clip-path">
      <path id="Path_125" data-name="Path 125" d="M0-476.425H39.406v44.707H0Z" transform="translate(0 476.425)" fill="#fff"/>
    </clipPath>
  </defs>
  <g id="Group_379" data-name="Group 379" transform="translate(-151.062 -21.852)">
    <g id="Group_268" data-name="Group 268" transform="translate(151.062 22)">
      <ellipse id="Ellipse_37" data-name="Ellipse 37" cx="38.5" cy="37.5" rx="38.5" ry="37.5" transform="translate(0 -0.148)" fill="#ff4147"/>
      <g id="Group_267" data-name="Group 267" transform="translate(18.996 15.213)">
        <g id="Group_46" data-name="Group 46" clip-path="url(#clip-path)">
          <g id="Group_13" data-name="Group 13" transform="translate(0 34.119)">
            <path id="Path_88" data-name="Path 88" d="M0-29.477A2.976,2.976,0,0,1,3.053-32.53a2.928,2.928,0,0,1,2.516,1.358L4.411-30.5a1.518,1.518,0,0,0-1.359-.721,1.625,1.625,0,0,0-1.711,1.744,1.625,1.625,0,0,0,1.711,1.744,1.508,1.508,0,0,0,1.359-.721l1.157.671a2.907,2.907,0,0,1-2.516,1.359A2.976,2.976,0,0,1,0-29.477" transform="translate(0 32.53)" fill="#fff"/>
          </g>
          <path id="Path_89" data-name="Path 89" d="M65.28-111.85h1.258v4.193H65.28Zm-.126-1.124a.762.762,0,0,1,.755-.755.762.762,0,0,1,.755.755.762.762,0,0,1-.755.755.762.762,0,0,1-.755-.755" transform="translate(-59.04 147.763)" fill="#fff"/>
          <g id="Group_14" data-name="Group 14" transform="translate(8.42 35.829)">
            <path id="Path_90" data-name="Path 90" d="M-24.3,0V1.426a.992.992,0,0,0-1.258.956v1.9h-1.258V.084h1.258V.83A1.259,1.259,0,0,1-24.3,0" transform="translate(26.811 0)" fill="#fff"/>
          </g>
          <g id="Group_15" data-name="Group 15" transform="translate(11.188 35.796)">
            <path id="Path_91" data-name="Path 91" d="M0-21.38a2.172,2.172,0,0,1,2.222-2.214,2.16,2.16,0,0,1,1.9,1.074l-1.1.637a.868.868,0,0,0-.814-.47.923.923,0,0,0-.948.973.923.923,0,0,0,.948.973.86.86,0,0,0,.814-.47l1.1.629a2.141,2.141,0,0,1-1.9,1.082A2.172,2.172,0,0,1,0-21.38" transform="translate(0 23.594)" fill="#fff"/>
          </g>
          <g id="Group_16" data-name="Group 16" transform="translate(15.792 35.913)">
            <path id="Path_92" data-name="Path 92" d="M-38.873,0V4.193h-1.258V3.8a1.434,1.434,0,0,1-1.2.512A1.568,1.568,0,0,1-42.9,2.575V0h1.258V2.39a.692.692,0,0,0,.73.763c.461,0,.78-.268.78-.864V0Z" transform="translate(42.898)" fill="#fff"/>
          </g>
          <g id="Group_17" data-name="Group 17" transform="translate(20.74 35.796)">
            <path id="Path_93" data-name="Path 93" d="M-60.738-16.764v2.575H-62v-2.466c0-.419-.2-.688-.6-.688-.419,0-.654.294-.654.788v2.365h-1.258v-2.466c0-.419-.2-.688-.6-.688-.419,0-.654.294-.654.788v2.365h-1.258v-4.193h1.258V-18a1.287,1.287,0,0,1,1.124-.5,1.248,1.248,0,0,1,1.1.553,1.381,1.381,0,0,1,1.216-.553,1.569,1.569,0,0,1,1.593,1.736" transform="translate(67.028 18.5)" fill="#fff"/>
          </g>
          <g id="Group_18" data-name="Group 18" transform="translate(29.782 34.119)">
            <path id="Path_94" data-name="Path 94" d="M0-29.477A2.976,2.976,0,0,1,3.053-32.53a2.928,2.928,0,0,1,2.516,1.358L4.411-30.5a1.518,1.518,0,0,0-1.359-.721,1.625,1.625,0,0,0-1.711,1.744,1.625,1.625,0,0,0,1.711,1.744,1.508,1.508,0,0,0,1.359-.721l1.157.671a2.907,2.907,0,0,1-2.516,1.359A2.976,2.976,0,0,1,0-29.477" transform="translate(0 32.53)" fill="#fff"/>
          </g>
          <g id="Group_19" data-name="Group 19" transform="translate(35.553 34.184)">
            <path id="Path_95" data-name="Path 95" d="M-9.253-8.882a.447.447,0,0,1-.489.448.48.48,0,0,1-.469-.287l.264-.153a.193.193,0,0,0,.205.142c.126,0,.182-.067.182-.149s-.056-.149-.182-.149H-9.8l-.117-.174.243-.309h-.491V-9.8h.862v.249l-.232.3a.394.394,0,0,1,.286.376" transform="translate(10.211 9.802)" fill="#fff"/>
          </g>
          <g id="Group_20" data-name="Group 20" transform="translate(20.354 0.971)">
            <path id="Path_96" data-name="Path 96" d="M0-101.623a6.684,6.684,0,0,1,4.385-1.633,6.691,6.691,0,0,1,4.809,2.031l6.21-6.365a15.553,15.553,0,0,0-11.019-4.557A15.6,15.6,0,0,0,0-111.518Z" transform="translate(0 112.147)" fill="#fff"/>
          </g>
          <g id="Group_21" data-name="Group 21" transform="translate(20.354 21.295)">
            <path id="Path_97" data-name="Path 97" d="M-148.1-58.035l-6.182-6.01a6.691,6.691,0,0,1-4.77,1.991,6.684,6.684,0,0,1-4.385-1.633v9.894a15.6,15.6,0,0,0,4.385.629,15.552,15.552,0,0,0,11.133-4.675Z" transform="translate(163.438 64.045)" fill="#fff"/>
          </g>
          <g id="Group_22" data-name="Group 22" transform="translate(8.615 9.602)">
            <path id="Path_98" data-name="Path 98" d="M-92.121-67.32a6.95,6.95,0,0,1,2.2-5.082,6.945,6.945,0,0,0-4.77-1.89,6.971,6.971,0,0,0-6.971,6.971,6.971,6.971,0,0,0,6.971,6.971,6.945,6.945,0,0,0,4.77-1.89,6.95,6.95,0,0,1-2.2-5.082" transform="translate(101.661 74.291)" fill="#fff"/>
          </g>
          <g id="Group_23" data-name="Group 23" transform="translate(0.06 15.961)">
            <path id="Path_99" data-name="Path 99" d="M-160.351-150.346c-8.353,0-16.605-7.216-16.605-15.569v15.583h20.49" transform="translate(176.956 165.915)" fill="#fff"/>
          </g>
          <g id="Group_24" data-name="Group 24" transform="translate(36.422 1.271)">
            <path id="Path_100" data-name="Path 100" d="M-4.437-9.151h.345a.243.243,0,0,0,.23-.258.243.243,0,0,0-.23-.259h-.345Zm.218.4h-.218v.661H-4.9V-10.1h.8A.688.688,0,0,1-3.4-9.41a.662.662,0,0,1-.371.583l.428.738H-3.84Z" transform="translate(4.897 10.099)" fill="#fff"/>
          </g>
          <g id="Group_25" data-name="Group 25" transform="translate(34.771 0)">
            <path id="Path_101" data-name="Path 101" d="M-22.381-4.206a1.884,1.884,0,0,0-1.882,1.882A1.884,1.884,0,0,0-22.381-.442,1.884,1.884,0,0,0-20.5-2.324a1.884,1.884,0,0,0-1.882-1.882m0,4.2A2.32,2.32,0,0,1-24.7-2.324a2.32,2.32,0,0,1,2.318-2.318,2.32,2.32,0,0,1,2.318,2.318A2.32,2.32,0,0,1-22.381-.006" transform="translate(24.699 4.642)" fill="#fff"/>
          </g>
          <g id="Group_26" data-name="Group 26" transform="translate(0.046 42.023)">
            <path id="Path_102" data-name="Path 102" d="M0-10.27a1.045,1.045,0,0,1,1.072-1.063,1.006,1.006,0,0,1,.884.495l-.139.08a.84.84,0,0,0-.745-.424.891.891,0,0,0-.916.913.891.891,0,0,0,.916.913.842.842,0,0,0,.751-.433l.138.08a1.007,1.007,0,0,1-.89.5A1.045,1.045,0,0,1,0-10.27" transform="translate(0 11.333)" fill="#fff"/>
          </g>
          <g id="Group_27" data-name="Group 27" transform="translate(2.347 42.624)">
            <path id="Path_103" data-name="Path 103" d="M-6.173,0V.141a.477.477,0,0,0-.492.533v.819h-.147V.021h.147V.309A.5.5,0,0,1-6.173,0" transform="translate(6.812 0)" fill="#fff"/>
          </g>
          <g id="Group_28" data-name="Group 28" transform="translate(3.095 42.612)">
            <path id="Path_104" data-name="Path 104" d="M-1.479-6.771H-.295a.572.572,0,0,0-.575-.56.594.594,0,0,0-.61.56M-.141-6.7c0,.024,0,.047,0,.071H-1.479a.6.6,0,0,0,.624.551.561.561,0,0,0,.51-.268l.13.076a.726.726,0,0,1-.642.333A.744.744,0,0,1-1.632-6.7a.743.743,0,0,1,.763-.769A.738.738,0,0,1-.141-6.7" transform="translate(1.632 7.472)" fill="#fff"/>
          </g>
          <g id="Group_29" data-name="Group 29" transform="translate(4.83 42.612)">
            <path id="Path_105" data-name="Path 105" d="M-13.485-7.425a.618.618,0,0,0-.622-.627.62.62,0,0,0-.624.627.62.62,0,0,0,.624.627.618.618,0,0,0,.622-.627m.15-.737v1.473h-.15v-.333a.708.708,0,0,1-.633.365.761.761,0,0,1-.763-.769.761.761,0,0,1,.763-.769.708.708,0,0,1,.633.365v-.333Z" transform="translate(14.881 8.194)" fill="#fff"/>
          </g>
          <g id="Group_30" data-name="Group 30" transform="translate(6.671 42.232)">
            <path id="Path_106" data-name="Path 106" d="M-4.58-5.377v.957c0,.259.139.265.439.239v.132c-.386.059-.589-.035-.589-.371v-.957h-.324v-.144h.324V-5.89l.15-.044v.413h.439v.144Z" transform="translate(5.054 5.934)" fill="#fff"/>
          </g>
          <g id="Group_31" data-name="Group 31" transform="translate(7.749 42.612)">
            <path id="Path_107" data-name="Path 107" d="M-1.479-6.771H-.295a.572.572,0,0,0-.574-.56.594.594,0,0,0-.61.56M-.141-6.7c0,.024,0,.047,0,.071H-1.479a.6.6,0,0,0,.624.551.561.561,0,0,0,.51-.268l.13.076a.726.726,0,0,1-.642.333A.744.744,0,0,1-1.632-6.7a.743.743,0,0,1,.763-.769A.738.738,0,0,1-.141-6.7" transform="translate(1.632 7.472)" fill="#fff"/>
          </g>
          <path id="Path_108" data-name="Path 108" d="M110.836-28.883h.147v2.71h-.147Z" transform="translate(-100.435 70.879)" fill="#fff"/>
          <g id="Group_32" data-name="Group 32" transform="translate(11.729 42.023)">
            <path id="Path_109" data-name="Path 109" d="M0-10.27a1.045,1.045,0,0,1,1.072-1.063,1.006,1.006,0,0,1,.884.495l-.139.08a.84.84,0,0,0-.745-.424.891.891,0,0,0-.916.913.891.891,0,0,0,.916.913.842.842,0,0,0,.751-.433l.138.08a1.007,1.007,0,0,1-.89.5A1.045,1.045,0,0,1,0-10.27" transform="translate(0 11.333)" fill="#fff"/>
          </g>
          <g id="Group_33" data-name="Group 33" transform="translate(14.03 42.624)">
            <path id="Path_110" data-name="Path 110" d="M-6.173,0V.141a.477.477,0,0,0-.492.533v.819h-.147V.021h.147V.309A.5.5,0,0,1-6.173,0" transform="translate(6.812 0)" fill="#fff"/>
          </g>
          <g id="Group_34" data-name="Group 34" transform="translate(14.778 42.612)">
            <path id="Path_111" data-name="Path 111" d="M-1.48-6.771H-.3a.572.572,0,0,0-.574-.56.594.594,0,0,0-.61.56M-.142-6.7c0,.024,0,.047,0,.071H-1.48a.6.6,0,0,0,.624.551.561.561,0,0,0,.51-.268l.13.076a.726.726,0,0,1-.642.333A.744.744,0,0,1-1.633-6.7.743.743,0,0,1-.87-7.472.738.738,0,0,1-.142-6.7" transform="translate(1.633 7.472)" fill="#fff"/>
          </g>
          <g id="Group_35" data-name="Group 35" transform="translate(16.513 42.612)">
            <path id="Path_112" data-name="Path 112" d="M-13.485-7.425a.618.618,0,0,0-.622-.627.62.62,0,0,0-.624.627.62.62,0,0,0,.624.627.618.618,0,0,0,.622-.627m.15-.737v1.473h-.15v-.333a.708.708,0,0,1-.633.365.761.761,0,0,1-.763-.769.761.761,0,0,1,.763-.769.708.708,0,0,1,.633.365v-.333Z" transform="translate(14.881 8.194)" fill="#fff"/>
          </g>
          <g id="Group_36" data-name="Group 36" transform="translate(18.354 42.232)">
            <path id="Path_113" data-name="Path 113" d="M-4.58-5.377v.957c0,.259.139.265.439.239v.132c-.386.059-.589-.035-.589-.371v-.957h-.324v-.144h.324V-5.89l.15-.044v.413h.439v.144Z" transform="translate(5.054 5.934)" fill="#fff"/>
          </g>
          <path id="Path_114" data-name="Path 114" d="M208.668-27.666h.147v1.473h-.147Zm-.044-.474a.118.118,0,0,1,.118-.115.118.118,0,0,1,.118.115.118.118,0,0,1-.118.118.118.118,0,0,1-.118-.118" transform="translate(-189.047 70.31)" fill="#fff"/>
          <g id="Group_37" data-name="Group 37" transform="translate(20.033 42.645)">
            <path id="Path_115" data-name="Path 115" d="M-13.768,0l-.622,1.473h-.18L-15.194,0h.159l.554,1.32L-13.924,0Z" transform="translate(15.194)" fill="#fff"/>
          </g>
          <g id="Group_38" data-name="Group 38" transform="translate(21.568 42.612)">
            <path id="Path_116" data-name="Path 116" d="M-1.48-6.771H-.3a.572.572,0,0,0-.574-.56.594.594,0,0,0-.61.56M-.142-6.7c0,.024,0,.047,0,.071H-1.48a.6.6,0,0,0,.624.551.561.561,0,0,0,.51-.268l.13.076a.726.726,0,0,1-.642.333A.744.744,0,0,1-1.633-6.7.743.743,0,0,1-.87-7.472.738.738,0,0,1-.142-6.7" transform="translate(1.633 7.472)" fill="#fff"/>
          </g>
          <path id="Path_117" data-name="Path 117" d="M258.1-28.883h.147v2.71H258.1Z" transform="translate(-233.881 70.879)" fill="#fff"/>
          <g id="Group_39" data-name="Group 39" transform="translate(25.548 42.023)">
            <path id="Path_118" data-name="Path 118" d="M0-10.27a1.045,1.045,0,0,1,1.072-1.063,1.006,1.006,0,0,1,.884.495l-.139.08a.84.84,0,0,0-.745-.424.891.891,0,0,0-.916.913.891.891,0,0,0,.916.913.842.842,0,0,0,.751-.433l.138.08a1.007,1.007,0,0,1-.89.5A1.045,1.045,0,0,1,0-10.27" transform="translate(0 11.333)" fill="#fff"/>
          </g>
          <g id="Group_40" data-name="Group 40" transform="translate(27.734 42.612)">
            <path id="Path_119" data-name="Path 119" d="M-13.485-7.425a.618.618,0,0,0-.622-.627.62.62,0,0,0-.624.627.62.62,0,0,0,.624.627.618.618,0,0,0,.622-.627m-1.4,0a.763.763,0,0,1,.775-.769.763.763,0,0,1,.772.769.763.763,0,0,1-.772.769.763.763,0,0,1-.775-.769" transform="translate(14.881 8.194)" fill="#fff"/>
          </g>
          <g id="Group_41" data-name="Group 41" transform="translate(29.634 42.612)">
            <path id="Path_120" data-name="Path 120" d="M-12.033-5.69v.916h-.15V-5.69a.406.406,0,0,0-.433-.448c-.289,0-.515.189-.515.586v.778h-.147V-6.247h.147v.28a.555.555,0,0,1,.527-.312.543.543,0,0,1,.572.589" transform="translate(13.279 6.279)" fill="#fff"/>
          </g>
          <g id="Group_42" data-name="Group 42" transform="translate(31.136 42.232)">
            <path id="Path_121" data-name="Path 121" d="M-4.58-5.377v.957c0,.259.139.265.439.239v.132c-.386.059-.589-.035-.589-.371v-.957h-.324v-.144h.324V-5.89l.15-.044v.413h.439v.144Z" transform="translate(5.054 5.934)" fill="#fff"/>
          </g>
          <g id="Group_43" data-name="Group 43" transform="translate(32.215 42.612)">
            <path id="Path_122" data-name="Path 122" d="M-1.479-6.771H-.295a.572.572,0,0,0-.574-.56.594.594,0,0,0-.61.56M-.141-6.7c0,.024,0,.047,0,.071H-1.479a.6.6,0,0,0,.624.551.561.561,0,0,0,.51-.268l.13.076a.726.726,0,0,1-.642.333A.744.744,0,0,1-1.632-6.7a.743.743,0,0,1,.763-.769A.738.738,0,0,1-.141-6.7" transform="translate(1.632 7.472)" fill="#fff"/>
          </g>
          <g id="Group_44" data-name="Group 44" transform="translate(34.05 42.612)">
            <path id="Path_123" data-name="Path 123" d="M-12.033-5.69v.916h-.15V-5.69a.406.406,0,0,0-.433-.448c-.289,0-.515.189-.515.586v.778h-.147V-6.247h.147v.28a.555.555,0,0,1,.527-.312.543.543,0,0,1,.571.589" transform="translate(13.279 6.279)" fill="#fff"/>
          </g>
          <g id="Group_45" data-name="Group 45" transform="translate(35.552 42.232)">
            <path id="Path_124" data-name="Path 124" d="M-4.581-5.377v.957c0,.259.139.265.439.239v.132c-.386.059-.589-.035-.589-.371v-.957h-.324v-.144h.324V-5.89l.15-.044v.413h.439v.144Z" transform="translate(5.055 5.934)" fill="#fff"/>
          </g>
        </g>
      </g>
    </g>
  </g>
</svg>
