<svg xmlns="http://www.w3.org/2000/svg" xmlns:xlink="http://www.w3.org/1999/xlink" width="99.31" height="101.38" viewBox="0 0 99.31 101.38">
  <defs>
    <linearGradient id="linear-gradient" x1="0.5" x2="0.5" y2="1" gradientUnits="objectBoundingBox">
      <stop offset="0" stop-color="#f7d80f"/>
      <stop offset="1" stop-color="#f0b208"/>
    </linearGradient>
  </defs>
  <g id="Group_552" data-name="Group 552" transform="translate(-895.701 -646.914)">
    <g id="Group_179" data-name="Group 179" transform="translate(895.701 646.914)">
      <path id="Path_174" data-name="Path 174" d="M2097.826,1227.449v2.069a49.655,49.655,0,0,1-43.541,49.277,48.639,48.639,0,0,1-6.114.378,49.581,49.581,0,0,1-49.655-49.655v-2.069a49.655,49.655,0,1,1,99.31,0Z" transform="translate(-1998.516 -1177.793)" fill="url(#linear-gradient)"/>
    </g>
    <g id="Group_177" data-name="Group 177" transform="translate(917.774 673)">
      <g id="Group_176" data-name="Group 176">
        <path id="Path_185" data-name="Path 185" d="M-1369.553-406.863q12.193,0,24.387,0a3.966,3.966,0,0,1,4,2.975,4.58,4.58,0,0,1,.139,1.105q.017,4.085,0,8.17a4.01,4.01,0,0,1-3.226,4.023q-9.764,2.19-19.533,4.354c-.338.075-.441.2-.434.542.024,1.119.012,2.239.006,3.359a1.464,1.464,0,0,1-1.661,1.656q-3.712,0-7.424,0a1.464,1.464,0,0,1-1.639-1.64c-.006-1.147-.012-2.295.005-3.442,0-.294-.092-.4-.373-.463q-9.689-2.147-19.373-4.311a4.058,4.058,0,0,1-3.44-4.271q0-3.919,0-7.839a3.994,3.994,0,0,1,4.213-4.22Q-1381.726-406.865-1369.553-406.863Zm5.346,17.714c.2-.036.333-.056.467-.085l18.722-4.191a1.087,1.087,0,0,0,1.012-1.237q0-4,0-8.005c0-.834-.381-1.21-1.224-1.21q-24.325,0-48.651,0c-.876,0-1.245.364-1.246,1.229q0,3.982,0,7.964a1.092,1.092,0,0,0,1.031,1.261l16.133,3.615c.992.222,1.987.439,3.033.671,0-.3-.011-.547,0-.792a1.4,1.4,0,0,1,1.472-1.461q3.9-.026,7.8,0a1.388,1.388,0,0,1,1.45,1.479C-1364.2-389.676-1364.207-389.443-1364.207-389.149Zm-7.706.765v4.691h4.684v-4.691Z" transform="translate(1398.113 415.886)" fill="#fff" stroke="#fff" stroke-width="0.7"/>
        <path id="Path_186" data-name="Path 186" d="M-1355.46-167.05q-11.489,0-22.98,0a3.989,3.989,0,0,1-4.185-3.168,5.164,5.164,0,0,1-.1-1.07q-.01-8.192,0-16.385c0-1.179.706-1.831,1.789-1.667a1.358,1.358,0,0,1,1.179,1.212,4.907,4.907,0,0,1,.02.58q0,8.027,0,16.053c0,.152-.005.3.009.456a.993.993,0,0,0,1.017.992c.193.013.387.005.58.005h45.3c1.444,0,1.654-.212,1.654-1.653q0-7.944,0-15.887a3.078,3.078,0,0,1,.069-.781,1.4,1.4,0,0,1,1.536-.994,1.37,1.37,0,0,1,1.336,1.142,3.309,3.309,0,0,1,.045.577q0,8.151,0,16.3a4.109,4.109,0,0,1-1.5,3.4,4.243,4.243,0,0,1-2.784.89Q-1343.97-167.054-1355.46-167.05Z" transform="translate(1384.01 216.433)" fill="#fff" stroke="#fff" stroke-width="0.7"/>
        <path id="Path_187" data-name="Path 187" d="M-1170.292-515.619c2.115,0,4.231-.01,6.346,0a3.9,3.9,0,0,1,4.021,3.144,9.845,9.845,0,0,1,.082,2.473,1.35,1.35,0,0,1-1.541,1.231,1.384,1.384,0,0,1-1.391-1.363c-.024-.441,0-.885-.012-1.327-.014-.774-.379-1.165-1.142-1.167q-6.387-.01-12.775,0c-.762,0-1.128.4-1.141,1.169-.007.415.007.83,0,1.244a1.4,1.4,0,0,1-1.359,1.44,1.38,1.38,0,0,1-1.594-1.273,10.1,10.1,0,0,1,.085-2.394,3.919,3.919,0,0,1,4.039-3.18C-1174.55-515.629-1172.421-515.619-1170.292-515.619Z" transform="translate(1198.861 515.623)" fill="#fff" stroke="#fff" stroke-width="0.7"/>
        <path id="Path_188" data-name="Path 188" d="M-1109.748-221h-7.719a1.532,1.532,0,0,0-1.533,1.533v7.72a1.532,1.532,0,0,0,1.533,1.533h7.719a1.532,1.532,0,0,0,1.533-1.533v-7.72A1.532,1.532,0,0,0-1109.748-221Zm-1.536,7.716h-4.646v-4.646h4.646Z" transform="translate(1142.156 245.443)" fill="#fff" stroke="#fff" stroke-width="0.7"/>
      </g>
    </g>
  </g>
</svg>
