<svg id="Group_248" data-name="Group 248" xmlns="http://www.w3.org/2000/svg" width="104.025" height="62.835" viewBox="0 0 104.025 62.835">
  <path id="Path_395" data-name="Path 395" d="M355.555,783.415a2.843,2.843,0,0,0,.443,1.938,3.006,3.006,0,0,0,1.972.437h2.05v1.087H347.836V785.79h1.477a3.176,3.176,0,0,0,2.016-.409,3.141,3.141,0,0,0,.4-1.966V759.577c0-1.48-.2-2.415-.585-2.811s-1.427-.595-3.1-.595h-.564v-1.09l8.075-.216v5.288a8.849,8.849,0,0,1,2.74-4.1,6.348,6.348,0,0,1,4.112-1.477,8.183,8.183,0,0,1,6.354,3.347,12.1,12.1,0,0,1,2.79,7.985,12.535,12.535,0,0,1-2.858,8.249,8.436,8.436,0,0,1-6.6,3.446c-2.821,0-5.01-1.514-6.536-4.561Zm-.152-17.058a13.158,13.158,0,0,0,1.874,7.515,5.468,5.468,0,0,0,4.561,2.725q5.318,0,5.316-10.388,0-10.552-5.366-10.54c-1.721,0-3.22.985-4.483,2.979a14.143,14.143,0,0,0-1.9,7.71" transform="translate(-311.454 -742.915)" fill="#056535"/>
  <path id="Path_396" data-name="Path 396" d="M362.944,751.744v9.273H369.5v1.666h-6.558v14.464a8.178,8.178,0,0,0,.607,3.694,2.3,2.3,0,0,0,2.226,1.111,3.423,3.423,0,0,0,3.066-1.725,8.915,8.915,0,0,0,1.09-4.771v-1.179l1.081-.486v1.573q0,3.967-1.629,6a5.832,5.832,0,0,1-4.83,2.031c-2.006,0-3.421-.6-4.257-1.808s-1.245-3.1-1.245-5.678V762.683h-4.468V761.4a7.545,7.545,0,0,0,5.112-2.938,11.049,11.049,0,0,0,1.805-6.713Z" transform="translate(-296.562 -748.852)" fill="#056535"/>
  <path id="Path_397" data-name="Path 397" d="M378.443,769.957a8.993,8.993,0,0,1-2.539,5.849,7.8,7.8,0,0,1-5.66,2.121,9.321,9.321,0,0,1-7.261-3.378A12.116,12.116,0,0,1,360,766.219a11.917,11.917,0,0,1,3.115-8.357,9.667,9.667,0,0,1,7.388-3.4,6.99,6.99,0,0,1,4.976,1.851,6.187,6.187,0,0,1,1.966,4.7,4.928,4.928,0,0,1-.929,3.146,2.851,2.851,0,0,1-2.35,1.174,2.8,2.8,0,0,1-2.074-.839,2.74,2.74,0,0,1-.848-2.044q0-2.322,1.622-2.855c1.081-.356,1.78-.582,2.087-.684a.488.488,0,0,0,.254-.452c0-.61-.465-1.254-1.4-1.945a5.29,5.29,0,0,0-3.236-1.037q-6.172,0-6.168,10.407,0,5.564,1.5,8.187a5.153,5.153,0,0,0,4.858,2.629,6.033,6.033,0,0,0,4.4-1.839,8,8,0,0,0,2.217-4.9Z" transform="translate(-285.212 -743.16)" fill="#056535"/>
  <path id="Path_398" data-name="Path 398" d="M373.553,750.81v30.369a2.906,2.906,0,0,0,.427,1.929,2.812,2.812,0,0,0,1.9.44H377.3v1.081H365.691v-1.081h1.524a3.193,3.193,0,0,0,2.037-.412,3.047,3.047,0,0,0,.406-1.948V757.142c0-2.093-.229-3.489-.7-4.192s-1.551-1.053-3.27-1.053V750.81Z" transform="translate(-273.278 -750.81)" fill="#056535"/>
  <path id="Path_399" data-name="Path 399" d="M354.928,762.868a8.6,8.6,0,1,0,5.635,10.345,9.369,9.369,0,0,1-10.106,8.267s-5.3.077-8.97-5.573a14.924,14.924,0,0,1,12.271-23.185h0c9.837-.087,17.352,8.022,17.352,17.72a17.632,17.632,0,1,1-33.611-7.5,23.716,23.716,0,0,0-.889,5.01A15.811,15.811,0,0,0,353.135,784.6c7.923-.653,14.259-6.44,14.259-14.163a13.967,13.967,0,0,0-8.2-12.754,12.885,12.885,0,0,0-17.978,11.9,11.755,11.755,0,0,0,.05,1.44,9.729,9.729,0,0,1,9.685-9.023,9.541,9.541,0,0,1,3.979.861" transform="translate(-335.845 -746.805)" fill="#a5cd39" fill-rule="evenodd"/>
  <path id="Path_400" data-name="Path 400" d="M344,757.267a3.643,3.643,0,1,1-3.629,3.644A3.633,3.633,0,0,1,344,757.267" transform="translate(-326.349 -737.274)" fill="#056535"/>
  <g id="Group_246" data-name="Group 246" transform="translate(55.607 40.862)">
    <path id="Path_401" data-name="Path 401" d="M357.114,773.023V769.07a1.641,1.641,0,0,0-.263-1.056.872.872,0,0,0-.743-.338,1.156,1.156,0,0,0-.947.421,1.854,1.854,0,0,0-.35,1.239v3.688H353.8v-9.017h1.006v3.728h.022a1.821,1.821,0,0,1,.582-.647,1.513,1.513,0,0,1,.923-.278,1.787,1.787,0,0,1,1.3.483,1.953,1.953,0,0,1,.492,1.477v4.254Z" transform="translate(-353.804 -764.007)" fill="#929497" fill-rule="evenodd"/>
    <path id="Path_402" data-name="Path 402" d="M359.036,767.593c0-1.272-.4-1.914-1.208-1.914a1.122,1.122,0,0,0-.464.1,1.076,1.076,0,0,0-.4.325,1.955,1.955,0,0,0-.276.591,4.069,4.069,0,0,0-.108.9Zm-2.455.771a2.484,2.484,0,0,0,.409,1.573,1.549,1.549,0,0,0,1.263.5,1.982,1.982,0,0,0,.759-.152,3.082,3.082,0,0,0,.647-.35l.046.913a3.469,3.469,0,0,1-.817.266,4.174,4.174,0,0,1-.9.093,2.516,2.516,0,0,1-1.072-.214,2.165,2.165,0,0,1-.765-.638,2.738,2.738,0,0,1-.471-.988,5.166,5.166,0,0,1-.158-1.307,5.064,5.064,0,0,1,.158-1.3,2.869,2.869,0,0,1,.458-1,2.1,2.1,0,0,1,.731-.622,2.17,2.17,0,0,1,1.025-.229,1.852,1.852,0,0,1,1.6.783,3.632,3.632,0,0,1,.551,2.127v.542Z" transform="translate(-350.202 -762.11)" fill="#929497" fill-rule="evenodd"/>
    <rect id="Rectangle_136" data-name="Rectangle 136" width="1.011" height="9.015" transform="translate(10.838 0.001)" fill="#929497"/>
    <rect id="Rectangle_137" data-name="Rectangle 137" width="1.011" height="9.015" transform="translate(13.145 0.001)" fill="#929497"/>
    <path id="Path_403" data-name="Path 403" d="M362.568,768.064a3.448,3.448,0,0,0-.347-1.743,1.129,1.129,0,0,0-1.056-.591,1.164,1.164,0,0,0-1.074.591,3.563,3.563,0,0,0-.334,1.743,3.62,3.62,0,0,0,.334,1.753,1.166,1.166,0,0,0,1.074.579,1.131,1.131,0,0,0,1.056-.579A3.5,3.5,0,0,0,362.568,768.064Zm1.062,0a5.007,5.007,0,0,1-.161,1.307,2.839,2.839,0,0,1-.467.988,2.146,2.146,0,0,1-.768.638,2.5,2.5,0,0,1-1.068.214,2.528,2.528,0,0,1-1.074-.214,2.226,2.226,0,0,1-.768-.638,2.678,2.678,0,0,1-.464-.988,4.874,4.874,0,0,1-.161-1.307,4.779,4.779,0,0,1,.161-1.3,2.714,2.714,0,0,1,.464-1,2.189,2.189,0,0,1,.768-.622,2.352,2.352,0,0,1,1.074-.229,2.325,2.325,0,0,1,1.068.229,2.111,2.111,0,0,1,.768.622,2.876,2.876,0,0,1,.467,1A4.908,4.908,0,0,1,363.63,768.064Z" transform="translate(-343.545 -762.11)" fill="#929497" fill-rule="evenodd"/>
    <path id="Path_404" data-name="Path 404" d="M364.425,772.049a3.266,3.266,0,0,1-.427.108,2.115,2.115,0,0,1-.43.046,1.557,1.557,0,0,1-1.056-.313,1.484,1.484,0,0,1-.362-1.14v-3.938h-.969v-.823h.969v-1.248l1.013-.3v1.552h1.263v.823h-1.263v3.617a1.4,1.4,0,0,0,.142.74.544.544,0,0,0,.489.219,1.12,1.12,0,0,0,.341-.046c.093-.037.2-.071.291-.111Z" transform="translate(-338.341 -763.103)" fill="#929497" fill-rule="evenodd"/>
    <path id="Path_405" data-name="Path 405" d="M366.278,768.064a3.444,3.444,0,0,0-.35-1.743,1.127,1.127,0,0,0-1.059-.591,1.161,1.161,0,0,0-1.068.591,3.567,3.567,0,0,0-.334,1.743,3.624,3.624,0,0,0,.334,1.753,1.163,1.163,0,0,0,1.068.579,1.129,1.129,0,0,0,1.059-.579A3.5,3.5,0,0,0,366.278,768.064Zm1.059,0a5.151,5.151,0,0,1-.155,1.307,2.952,2.952,0,0,1-.471.988,2.155,2.155,0,0,1-.771.638,2.786,2.786,0,0,1-2.14,0,2.182,2.182,0,0,1-.771-.638,2.836,2.836,0,0,1-.468-.988,5.167,5.167,0,0,1-.152-1.307,5.066,5.066,0,0,1,.152-1.3,2.873,2.873,0,0,1,.468-1,2.147,2.147,0,0,1,.771-.622,2.613,2.613,0,0,1,2.14,0,2.121,2.121,0,0,1,.771.622,2.99,2.99,0,0,1,.471,1A5.05,5.05,0,0,1,367.337,768.064Z" transform="translate(-335.761 -762.11)" fill="#929497" fill-rule="evenodd"/>
    <path id="Path_406" data-name="Path 406" d="M368.141,772.049a3.923,3.923,0,0,1-.421.108,2.244,2.244,0,0,1-.436.046,1.556,1.556,0,0,1-1.056-.313,1.461,1.461,0,0,1-.362-1.14v-3.938h-.975v-.823h.975v-1.248l1.009-.3v1.552h1.266v.823h-1.266v3.617a1.393,1.393,0,0,0,.146.74.546.546,0,0,0,.492.219,1.113,1.113,0,0,0,.337-.046c.1-.037.192-.071.291-.111Z" transform="translate(-330.564 -763.103)" fill="#929497" fill-rule="evenodd"/>
    <path id="Path_407" data-name="Path 407" d="M369.535,773.023V769.07a1.7,1.7,0,0,0-.26-1.056.888.888,0,0,0-.749-.338,1.163,1.163,0,0,0-.95.421,1.871,1.871,0,0,0-.353,1.239v3.688h-1v-9.017h1v3.728h.028a1.84,1.84,0,0,1,.579-.647,1.522,1.522,0,0,1,.92-.278,1.775,1.775,0,0,1,1.3.483,1.953,1.953,0,0,1,.492,1.477v4.254Z" transform="translate(-327.778 -764.007)" fill="#929497" fill-rule="evenodd"/>
    <path id="Path_408" data-name="Path 408" d="M371.45,767.593c0-1.272-.4-1.914-1.2-1.914a1.133,1.133,0,0,0-.474.1,1.056,1.056,0,0,0-.393.325,1.814,1.814,0,0,0-.279.591,3.89,3.89,0,0,0-.111.9Zm-2.459.771a2.5,2.5,0,0,0,.409,1.573,1.549,1.549,0,0,0,1.263.5,1.974,1.974,0,0,0,.762-.152,3.041,3.041,0,0,0,.644-.35l.05.913a3.517,3.517,0,0,1-.811.266,4.272,4.272,0,0,1-.907.093,2.49,2.49,0,0,1-1.068-.214,2.155,2.155,0,0,1-.771-.638,2.786,2.786,0,0,1-.47-.988,5.164,5.164,0,0,1-.152-1.307,5.063,5.063,0,0,1,.152-1.3,2.922,2.922,0,0,1,.461-1,2.03,2.03,0,0,1,.734-.622,2.149,2.149,0,0,1,1.022-.229,1.853,1.853,0,0,1,1.6.783,3.612,3.612,0,0,1,.551,2.127v.542Z" transform="translate(-324.172 -762.11)" fill="#929497" fill-rule="evenodd"/>
  </g>
  <g id="Group_247" data-name="Group 247" transform="translate(36.639 53.139)">
    <path id="Path_409" data-name="Path 409" d="M349.146,777.558h1.139v-5.824H353.5v-.926h-3.217v-.836c0-.6.331-1.074,1.177-1.074h2.04v-.926h-2.13a2.024,2.024,0,0,0-2.226,2.239v.6h-1.468v.926h1.468Z" transform="translate(-347.678 -767.972)" fill="#056535" fill-rule="evenodd"/>
    <path id="Path_410" data-name="Path 410" d="M357.143,775.638H358.2v-6.75h-1.136v3.839c0,1.586-.61,2.093-3.273,2.093H353.5c-2.208,0-2.489-.653-2.489-1.647v-4.285h-1.133v4.564c0,1.22.669,2.295,2.8,2.295h1.709c1.418,0,2.3-.226,2.725-1.276h.028Z" transform="translate(-343.064 -766.052)" fill="#056535" fill-rule="evenodd"/>
    <path id="Path_411" data-name="Path 411" d="M354.405,774.7c0,1.1.5,2.134,2.635,2.134h.626c2.462,0,2.592-1.075,2.592-2.428v-.74h-.926v.5c0,1.412-.232,1.737-1.746,1.737h-.356c-1.248,0-1.685-.387-1.685-1.647V770.9h4.518v-.926h-4.518v-1.6h-1.139v1.6h-1.48v.926h1.48Z" transform="translate(-336.679 -767.137)" fill="#056535" fill-rule="evenodd"/>
    <path id="Path_412" data-name="Path 412" d="M362.829,775.638h1.059v-6.75h-1.14v3.839c0,1.586-.607,2.093-3.27,2.093h-.288c-2.211,0-2.493-.653-2.493-1.647v-4.285h-1.136v4.564c0,1.22.678,2.295,2.8,2.295h1.709c1.418,0,2.3-.226,2.725-1.276h.031Z" transform="translate(-331.151 -766.052)" fill="#056535" fill-rule="evenodd"/>
    <path id="Path_413" data-name="Path 413" d="M358.621,775.711h1.139v-4.288a1.616,1.616,0,0,1,1.79-1.644h.7c2.022,0,2.366.263,2.366,1.935v.291h1.059v-.811c0-1.654-.7-2.341-2.833-2.341h-1.071a2.112,2.112,0,0,0-2.065,1.084h-.025v-.975h-1.062Z" transform="translate(-324.738 -766.125)" fill="#056535" fill-rule="evenodd"/>
    <path id="Path_414" data-name="Path 414" d="M368.731,771.606h-6.363c.105-1.53.526-1.827,2.325-1.827h1.672c1.848,0,2.366.69,2.366,1.375Zm-7.5,1.446c0,2.487,1.694,2.768,3.174,2.768h2.065c2.121,0,3.4-.465,3.4-2.013v-.136h-1.136c-.065,1.034-.647,1.223-2.078,1.223h-1.56c-1.988,0-2.725-.4-2.725-1.935v-.427h7.5v-.752c0-2.406-1.465-2.926-3.5-2.926h-1.833c-1.61,0-3.3.276-3.3,2.728Z" transform="translate(-319.271 -766.125)" fill="#056535" fill-rule="evenodd"/>
  </g>
</svg>
