<svg id="Group_220" data-name="Group 220" xmlns="http://www.w3.org/2000/svg" width="81.199" height="90.844" viewBox="0 0 81.199 90.844">
  <path id="Path_196" data-name="Path 196" d="M97.743,770.032q1.537-1.244,3.657-3.055c.513-.443.927-.826,1.249-1.147a4.346,4.346,0,0,0,.818-1.143,13.728,13.728,0,0,0,.675-1.672c.224-.667.529-1.578.911-2.721h-.1a6.524,6.524,0,0,1-1.68,2.383,25.045,25.045,0,0,1-2.213,1.672,21.825,21.825,0,0,0-2.4,1.912,10.32,10.32,0,0,0-2.164,3.006v-.093q.86-2.483,1.289-4.2c.289-1.147.541-2.152.765-3.006a9.749,9.749,0,0,1,.858-2.245,5.846,5.846,0,0,1,1.672-1.814v-.1a7.2,7.2,0,0,0-4.206,3.059,9.234,9.234,0,0,0-1.631,5.345V772.9A10.624,10.624,0,0,1,97.743,770.032Zm4.519-8.163a33.526,33.526,0,0,0,2.436-2.819q1.092-1.428,2.1-2.717a15.45,15.45,0,0,1,2.245-2.339l-.1-.1a5.541,5.541,0,0,1-2.148,1.143,11.965,11.965,0,0,0-2.721,1.244,9.686,9.686,0,0,0-2.77,2.721,16.967,16.967,0,0,0-2.29,5.487A18.391,18.391,0,0,0,102.262,761.869ZM91.549,786.835a29.253,29.253,0,0,0,2.139,2.819,21.606,21.606,0,0,1,2.331,3.389h.069a9.72,9.72,0,0,1-.118-1.53v-1.338a10.147,10.147,0,0,1,.537-2.53c.366-1.175.74-2.481,1.135-3.913s.736-2.88,1.029-4.344a12.894,12.894,0,0,0,.248-3.913h-.094a8.231,8.231,0,0,1-1.013,2.432c-.48.8-.976,1.623-1.489,2.485a18.761,18.761,0,0,0-1.346,2.766,8.793,8.793,0,0,0-.578,3.2,7.655,7.655,0,0,0,.228,1.574,8.944,8.944,0,0,1,.232,1.192h-.1a24,24,0,0,0-1.07-4.011q-.7-1.9-1.4-3.53t-1.163-2.957a7.068,7.068,0,0,1-.464-2.2c0-.634.016-1.143.057-1.525a13.9,13.9,0,0,0,.061-1.432h-.1a24.2,24.2,0,0,0-.765,2.481,12.05,12.05,0,0,0-.46,3.055,15.33,15.33,0,0,0,.574,4.629A12.908,12.908,0,0,0,91.549,786.835Zm17.38,25.878a11.11,11.11,0,0,0,2.481-.045c.443-.065,1.017-.159,1.716-.289s1.607-.333,2.721-.623,2.587-.651,4.434-1.1q-1.812-.47-3.148-.9a7.139,7.139,0,0,1-2.668-1.66q-1.623-1.428-3.246-2.949c-.842-.785-1.729-1.525-2.583-2.3-.24-.22-1.493-1.326-1.855-1.688l-.1.094c.146.232,1.322,2.6,1.322,2.6s.187.256.26.39q.482.849.94,1.709c.122.224.24.447.358.679a5.27,5.27,0,0,0,1.586,1.851,10.376,10.376,0,0,0,4.011,2v.093c-.81-.126-1.493-.235-2.054-.329s-1.074-.175-1.538-.24-.931-.11-1.4-.143c-.574-.037-1.155-.069-1.72-.155-.447-.069-.891-.15-1.342-.2s-.883-.1-1.326-.15c-.228-.029-.456-.053-.683-.078a16.481,16.481,0,0,1-2.4-.431,8.394,8.394,0,0,1-2.16-.907,13.724,13.724,0,0,1-2.3-1.765l-.1.093a11.505,11.505,0,0,0,1.3,1.818,14.854,14.854,0,0,0,2.013,1.92,11.458,11.458,0,0,0,2.831,1.647,15.008,15.008,0,0,0,3.742.971S108.628,812.684,108.929,812.713ZM94.042,782.825h.118a9.586,9.586,0,0,1,.281-1.525,8.177,8.177,0,0,1,.708-1.622,24.785,24.785,0,0,1,1.464-2.294q.946-1.336,2.546-3.628a12.405,12.405,0,0,0,1.509-3.339q.567-1.91.757-2.77h-.094a4.092,4.092,0,0,1-.427.813c-.159.22-.362.476-.614.761s-.582.622-.988,1-.96.891-1.651,1.529A9.173,9.173,0,0,0,95.2,774.9a20.631,20.631,0,0,0-.944,3.148H94.16c.041-.509.069-1,.089-1.477s.033-1.1.033-1.863q0-1.428-.183-3.339c-.118-1.277-.179-2.929-.179-4.967a4.449,4.449,0,0,1,.378-1.814q.372-.861.659-1.623h-.1a16.054,16.054,0,0,0-2.75,4.82,14.491,14.491,0,0,0-.72,4.442,13.765,13.765,0,0,0,.98,5.011A39.972,39.972,0,0,1,94.042,782.825Zm9.945,24.731,3.99.874,2.074.476a17.032,17.032,0,0,1-2.03-2.689,13.342,13.342,0,0,1-1.245-2.628q-.58-1.574-1.627-4.153a11.946,11.946,0,0,0-.626-1.525c-.224-.448-.48-.907-.765-1.387s-.643-1.017-1.053-1.619-.944-1.354-1.582-2.245l-.094.093c.187.639.46,1.786.809,3.437s.683,3.217,1,4.678a7.21,7.21,0,0,0,1.285,3.01,17.328,17.328,0,0,0,2.624,2.815l-.1.1a8.431,8.431,0,0,1-2.3-1.53,16.589,16.589,0,0,0-3.453-2.2,52.8,52.8,0,0,1-5.711-3.2,8.666,8.666,0,0,1-3.116-3.771l-.1.094a14.248,14.248,0,0,0,1.782,4.3,15,15,0,0,0,2.835,3.339,16.335,16.335,0,0,0,3.555,2.387A15.346,15.346,0,0,0,103.987,807.555Zm-8.928-9.835,7.049,4.677c-.309-.638-.574-1.241-.793-1.814a10.563,10.563,0,0,1-.513-1.907c-.122-.7-.232-1.481-.325-2.339s-.2-1.9-.325-3.108q-.372-3.142-.651-4.865a20.448,20.448,0,0,0-1.025-3.726h-.1a23.237,23.237,0,0,1-.142,2.77,17.6,17.6,0,0,1-.382,2.1c-.159.635-.285,1.22-.378,1.761a10.622,10.622,0,0,0-.146,1.863,8.3,8.3,0,0,0,.618,2.721,23.643,23.643,0,0,0,1.163,2.721l-.094.1a27.8,27.8,0,0,0-3.193-4.251q-1.574-1.671-2.859-3.054a22.374,22.374,0,0,1-2.192-2.721,7.836,7.836,0,0,1-1.192-3.344,7.653,7.653,0,0,0-.179.911,5.837,5.837,0,0,0-.061.9,10.09,10.09,0,0,0,.569,3.295,16.156,16.156,0,0,0,1.432,3.1,15.407,15.407,0,0,0,1.855,2.53A10.5,10.5,0,0,0,95.059,797.72Zm58.023-41.374c.667.858,1.371,1.765,2.1,2.717a32.779,32.779,0,0,0,2.436,2.819,18.54,18.54,0,0,0,3.246,2.623,17.015,17.015,0,0,0-2.29-5.487,9.686,9.686,0,0,0-2.77-2.725,12.373,12.373,0,0,0-2.721-1.241,5.535,5.535,0,0,1-2.148-1.143l-.1.1A15.291,15.291,0,0,1,153.082,756.346Zm6.26,51.6a8.4,8.4,0,0,1-2.16.907,17.246,17.246,0,0,1-2.4.431l-.683.073c-.443.053-.887.1-1.326.154s-.895.134-1.342.2c-.565.086-1.151.118-1.721.155-.468.032-.931.077-1.4.142s-.976.143-1.542.236-1.24.208-2.05.334v-.094a10.377,10.377,0,0,0,4.011-2,5.279,5.279,0,0,0,1.586-1.855c.118-.224.236-.451.354-.679.309-.569.622-1.139.94-1.7.077-.134.264-.39.264-.39s1.176-2.363,1.318-2.6l-.093-.1c-.362.366-1.615,1.472-1.855,1.692-.854.777-1.745,1.513-2.587,2.3q-1.617,1.519-3.242,2.949a7.22,7.22,0,0,1-2.672,1.66c-.887.289-1.936.586-3.144.9q2.764.671,4.434,1.1t2.717.622q1.055.189,1.721.284a9.836,9.836,0,0,0,1.428.1,10.36,10.36,0,0,0,1.053-.049c.3-.028.9-.1.9-.1a15.036,15.036,0,0,0,3.746-.972,11.528,11.528,0,0,0,2.827-1.648,14.4,14.4,0,0,0,2.017-1.924,11.472,11.472,0,0,0,1.3-1.81l-.1-.1A13.907,13.907,0,0,1,159.342,807.942Zm5.349-8.066a51.688,51.688,0,0,1-5.707,3.2,16.736,16.736,0,0,0-3.457,2.2,8.378,8.378,0,0,1-2.3,1.525l-.1-.093a17.539,17.539,0,0,0,2.624-2.815,7.235,7.235,0,0,0,1.285-3.01q.476-2.19,1-4.678c.35-1.655.622-2.8.809-3.437l-.094-.094q-.958,1.337-1.582,2.241c-.411.606-.765,1.147-1.053,1.623s-.541.94-.769,1.383a12.935,12.935,0,0,0-.622,1.529q-1.049,2.581-1.627,4.153a13.456,13.456,0,0,1-1.249,2.628,16.927,16.927,0,0,1-2.026,2.688l2.074-.48,3.99-.874a15.328,15.328,0,0,0,3.844-1.334,16.493,16.493,0,0,0,3.555-2.388,15.046,15.046,0,0,0,2.835-3.343,14.21,14.21,0,0,0,1.777-4.3l-.094-.1A8.6,8.6,0,0,1,164.69,799.876Zm2.9-18.279q-.7,1.622-1.4,3.53a24.3,24.3,0,0,0-1.074,4.011h-.094a9.34,9.34,0,0,1,.228-1.192,7.471,7.471,0,0,0,.232-1.578,8.787,8.787,0,0,0-.578-3.2,18.979,18.979,0,0,0-1.346-2.77c-.512-.858-1.009-1.688-1.493-2.481a8.31,8.31,0,0,1-1.009-2.437h-.1a13.064,13.064,0,0,0,.252,3.917q.439,2.2,1.029,4.344t1.131,3.913a10.015,10.015,0,0,1,.541,2.53v1.338a9.641,9.641,0,0,1-.122,1.525h.073a21.681,21.681,0,0,1,2.331-3.388,28.767,28.767,0,0,0,2.139-2.815,12.978,12.978,0,0,0,1.517-3.2,15.367,15.367,0,0,0,.569-4.629,12.042,12.042,0,0,0-.455-3.055,22.686,22.686,0,0,0-.769-2.481h-.1c0,.569.024,1.049.061,1.431a15.03,15.03,0,0,1,.061,1.525,7.028,7.028,0,0,1-.464,2.2C168.436,779.53,168.05,780.514,167.586,781.6Zm-2.9-6.683a9.189,9.189,0,0,0-2.453-3.152c-.692-.635-1.245-1.143-1.651-1.525s-.74-.72-.992-1-.452-.541-.61-.765a3.767,3.767,0,0,1-.427-.81h-.094q.189.86.757,2.766a12.256,12.256,0,0,0,1.509,3.344q1.6,2.294,2.546,3.628a25.743,25.743,0,0,1,1.464,2.29,8.105,8.105,0,0,1,.7,1.623,9.706,9.706,0,0,1,.285,1.529h.118a39.4,39.4,0,0,1,1.672-5.584,13.769,13.769,0,0,0,.98-5.011,14.375,14.375,0,0,0-.724-4.442,15.848,15.848,0,0,0-2.746-4.82h-.1c.191.509.411,1.05.663,1.623a4.5,4.5,0,0,1,.374,1.814q0,3.056-.179,4.962t-.183,3.344c0,.765.012,1.383.029,1.859s.053.972.094,1.48h-.094A20.642,20.642,0,0,0,164.682,774.913Zm-4.214-15.18a9.718,9.718,0,0,1,.858,2.242c.22.858.476,1.862.761,3.009s.72,2.546,1.293,4.2v.1a10.318,10.318,0,0,0-2.164-3.006,20.938,20.938,0,0,0-2.4-1.912,25.648,25.648,0,0,1-2.209-1.672,6.48,6.48,0,0,1-1.68-2.384h-.1q.573,1.715.911,2.721a13.381,13.381,0,0,0,.675,1.668,4.384,4.384,0,0,0,.813,1.147q.482.475,1.253,1.147,2.117,1.812,3.653,3.055a10.568,10.568,0,0,1,2.5,2.863v-6.683A9.254,9.254,0,0,0,163,760.877a7.192,7.192,0,0,0-4.206-3.055v.1A5.843,5.843,0,0,1,160.468,759.734Zm-11.055,54.931a7.91,7.91,0,0,1-1.578-.142c-.476-.1-1.066-.207-1.765-.334v.024c-.565-.187-1.208-.406-1.924-.654-.732-.256-1.615-.574-2.636-.96q-2.685-.952-4.076-1.436a8.41,8.41,0,0,0-2.729-.476,13.1,13.1,0,0,0-2.782.334c-.952.208-1.643.37-2.1.5-.395-.126-1.062-.293-2.005-.5a12.986,12.986,0,0,0-2.766-.334,8.4,8.4,0,0,0-2.717.472q-1.385.476-4.059,1.419-3.142,1.142-4.669,1.611a10.5,10.5,0,0,1-3.148.476,9.778,9.778,0,0,1-1.338-.094,5.112,5.112,0,0,1-1.143-.288s-.9-.26-1.391-.476c-.512-.223-1.119-.492-1.822-.814l-.094.1a19.011,19.011,0,0,0,3.352,2.571,10.458,10.458,0,0,0,5.3,1.534,13,13,0,0,0,2.054-.142,7.65,7.65,0,0,0,1.81-.525c.6-.252,1.273-.569,2-.952s1.607-.887,2.624-1.521c1.082-.7,1.989-1.252,2.717-1.664a5.051,5.051,0,0,1,2.53-.622,3.69,3.69,0,0,1,1.147.191q-1.916,1.044-4.348,2.51a22.282,22.282,0,0,0-4.726,3.929l1.623,1.432a35.5,35.5,0,0,1,4.678-4.572,15.981,15.981,0,0,1,4.4-2.721,16.625,16.625,0,0,1,4.434,2.721,33.773,33.773,0,0,1,4.726,4.572l1.623-1.432a21.693,21.693,0,0,0-4.771-3.929q-2.483-1.465-4.393-2.51a5.5,5.5,0,0,1,1.249-.191,5.081,5.081,0,0,1,2.538.622c.736.411,1.643.968,2.729,1.664.96.573,1.79,1.062,2.493,1.477a12.626,12.626,0,0,0,1.965.952,14.96,14.96,0,0,0,1.773.524,9.121,9.121,0,0,0,1.875.187h.382a11.616,11.616,0,0,0,4.348-.952,11.355,11.355,0,0,0,4.255-3.153V813a29.745,29.745,0,0,1-3.156,1.3A8.016,8.016,0,0,1,149.413,814.665Zm21.122-27.708c0-.1,0-.2-.012-.3-.008-.15-.024-.3-.041-.443-.045-.285-.106-.59-.183-.907a7.909,7.909,0,0,1-1.188,3.343,23.5,23.5,0,0,1-2.188,2.717l-.15.167q-1.232,1.323-2.717,2.9a27.93,27.93,0,0,0-3.144,4.169l-.024-.024a20.3,20.3,0,0,0,1.119-2.721,8.936,8.936,0,0,0,.569-2.721,10.981,10.981,0,0,0-.142-1.863c-.1-.541-.211-1.131-.338-1.765s-.24-1.334-.334-2.1a23.365,23.365,0,0,1-.142-2.774h-.094l-.024.065,0-.057H161.4a20.156,20.156,0,0,0-1.025,3.73q-.275,1.715-.651,4.865c-.126,1.208-.232,2.245-.325,3.1s-.2,1.639-.325,2.339a10.719,10.719,0,0,1-.513,1.908c-.191.492-.415,1.009-.667,1.542-.053.089-.1.179-.15.268l.037-.025-.016.033,2.371-1.574,4.767-3.115a10.307,10.307,0,0,0,1.863-1.668,14.041,14.041,0,0,0,1.814-2.53,17.878,17.878,0,0,0,.907-1.859c.171-.4.334-.813.48-1.236a10.213,10.213,0,0,0,.569-3.294v-.008Zm-27.773-28.111a2.864,2.864,0,0,1,.512.285,4.311,4.311,0,0,1,.321.382.4.4,0,0,0,.325.191c.187,0,.281-.065.281-.195s-.016-.171-.049-.138-.045-.017-.045-.143a.779.779,0,0,0-.187-.573.716.716,0,0,0-.834-.192.269.269,0,0,0-.183-.093h-.094c-.183,0-.277.065-.277.192A.306.306,0,0,0,142.762,758.847Zm-10.116-2.294h.191a4.333,4.333,0,0,1,1.147-.24h1.346a.683.683,0,0,0,.573-.24,2.516,2.516,0,0,0,.289-.439,1.787,1.787,0,0,0-1.151-.675,7.679,7.679,0,0,0-.96-.1,5.867,5.867,0,0,0-1.147.35c-.643.232-1.025.382-1.151.447-.325-.065-.513,0-.578.2a4.84,4.84,0,0,0,.529.448A1.479,1.479,0,0,0,132.647,756.553Zm-2.888,52.312a28.8,28.8,0,1,0-28.8-28.8A28.837,28.837,0,0,0,129.759,808.865Zm-27.33-28.078h4.381a22.9,22.9,0,0,0,.9,5.674.512.512,0,0,1-.334-.232l-.134-.134-.48-.671-.8.285c0,.452-.163.61-.48.48a.564.564,0,0,0-.382-.191.863.863,0,0,0-.915.817,8.1,8.1,0,0,0-.142,1.1l.671,1.724c.13.2.321.224.578.1.252.321.447.54.574.671a.687.687,0,0,0,.5.191c.2,0,.3-.093.3-.288h.1c.134.126.264.276.4.431a1.98,1.98,0,0,0,.5.431v-.089a1.147,1.147,0,0,0,.809.342,2.394,2.394,0,0,0,.565,1.066,1.093,1.093,0,0,0,.761.391.546.546,0,0,0,.382-.2,3.174,3.174,0,0,0,.48.968,4.8,4.8,0,0,1,.48.293,2.985,2.985,0,0,1,.382.289h.191l0,.007a1.729,1.729,0,0,0,.476.769,3.839,3.839,0,0,0,.578.484l-.061.024.053.021.073.008c.065.074.126.146.191.216l-3.1,3.1A27.246,27.246,0,0,1,102.429,780.787Zm21.106-8.074c-.09-.061-.175-.109-.248-.154l-.293-.289a10.265,10.265,0,0,1,6.036-2.5v3.043a.437.437,0,0,0-.134-.073.532.532,0,0,1-.069-.1l-.033-.013a.389.389,0,0,0-.232-.045,1.014,1.014,0,0,0-.11.017l-.029-.017a1.106,1.106,0,0,0-.207.029.692.692,0,0,1-.228.049.283.283,0,0,1-.118-.028c-.089-.065-.138-.208-.138-.435l-.012.008,0-.016c-.26.126-.407.252-.435.378s-.081.35-.146.671a.717.717,0,0,1-.484.525,1.608,1.608,0,0,0-.582.337l-.289-.191H125.3a1.327,1.327,0,0,0-.293-.24.7.7,0,0,1-.191-.146c-.061-.061-.093-.061-.093,0a.243.243,0,0,0-.252.215l-.289-.285.077-.024v-.191A4.135,4.135,0,0,0,123.535,772.713Zm-1.574-1.476-2.945-2.945a15.893,15.893,0,0,1,10.014-4.157V768.3A11.72,11.72,0,0,0,121.961,771.237Zm1.651,13.858c.155-.15.089-.431.142-.618l-.329.305a2.676,2.676,0,0,0,.574-.72,3.329,3.329,0,0,1,.289-.529l.024,0a5.457,5.457,0,0,0,.346.6l-2.693,2.693a10.316,10.316,0,0,1-2.233-4.328,2.216,2.216,0,0,1,.671.191,6.325,6.325,0,0,1,.606.545.856.856,0,0,0,.386-.094l.386.285a.743.743,0,0,0,.1.48c0,.065.1.147.289.24a.837.837,0,0,1,.39.334l.2-.093A3.121,3.121,0,0,0,122.7,784c-.033-.191-.012-.289.053-.289l.187.671.191.765-.008.012A.531.531,0,0,0,123.613,785.094Zm5.727,3.055c.163.158.24.273.24.333,0,.2-.256.289-.765.289-.2,0-.321.183-.386.545s-.126.671-.191.915c-.053-.008-.1-.024-.159-.032l.016.032a10.251,10.251,0,0,1-5.1-2.375l2.591-2.6a6.108,6.108,0,0,0,3.616,1.668.726.726,0,0,0,.094.407.646.646,0,0,0-.191.48C129.1,787.881,129.181,787.99,129.34,788.149Zm-12.764.179a12.305,12.305,0,0,0-.2-1.631,6.906,6.906,0,0,0-.289-.862,4.522,4.522,0,0,0-.3-1.294,5.536,5.536,0,0,0-.911-1.2v-.557a2.316,2.316,0,0,0-.191-.562v-.1a.229.229,0,0,1,.151-.248l1.009-.342a2.356,2.356,0,0,1,.1-.887l.7.122c.2,0,.293-.131.293-.4a2.79,2.79,0,0,0-.187-.594,2.3,2.3,0,0,1-.2-.692c0-.134.1-.248.289-.346a1.205,1.205,0,0,1,.569-.151.7.7,0,0,1,.667.329,1.426,1.426,0,0,1,.191.712,2.536,2.536,0,0,1-.049.517,2.171,2.171,0,0,0-.045.427l.191.094c-.13.634-.382.948-.765.948a.454.454,0,0,1-.427-.244.409.409,0,0,0-.334-.24.082.082,0,0,0-.094.094.85.85,0,0,0,.094.39,1.081,1.081,0,0,1,.094.484c0,.451-.2.614-.6.484-.13.244,0,.366.4.366.13.383.264.545.4.484a1.608,1.608,0,0,0,.2-.65,2.94,2.94,0,0,1,.2-.757l.1.1.4-.1.033.146a.556.556,0,0,1,.114,0,11.79,11.79,0,0,0,2.758,5.678l-4.055,4.056a.713.713,0,0,1-.228-.639c.089-.386.484-.627.533-1.033l.094-.765A3.861,3.861,0,0,1,116.576,788.328Zm-2.319-6a.9.9,0,0,1,.094.383c0,.2-.065.273-.191.244a.149.149,0,0,0-.073,0,15.235,15.235,0,0,1-.252-2.172h.8a1.023,1.023,0,0,1-.09.39,2.847,2.847,0,0,1-.24.386.613.613,0,0,0-.142.382A.832.832,0,0,0,114.257,782.328Zm-.423-2.993a15.911,15.911,0,0,1,4.153-10.018l2.945,2.945-.077.1a2.44,2.44,0,0,0-.513.183c-.126.155-.264.334-.423.566a4.21,4.21,0,0,0-.911.48,5.841,5.841,0,0,0-.72.765,7.185,7.185,0,0,1-.72.337.921.921,0,0,0-.334.24q.189.481,0,.524l-.96.244a.281.281,0,0,0-.191.094l-.289.288a.773.773,0,0,0-.1.334.819.819,0,0,1-.094.338,1.644,1.644,0,0,0-.48.48,1.209,1.209,0,0,0,0,.862l.122.96-.041-.008a1.783,1.783,0,0,1,.081.289Zm8.127,9.555a11.742,11.742,0,0,0,5.109,2.635c-.142.049-.281.1-.423.138a.777.777,0,0,0-.573.627.864.864,0,0,1-.431.724c-.228.1-.305.244-.24.435a2.725,2.725,0,0,1,.671,1.159,1.2,1.2,0,0,0,.96.87l.573.191a1.1,1.1,0,0,1,.569.211c.167.02.338.045.5.081a15.888,15.888,0,0,1-9.66-4.132Zm-3.97-21.623-2.912-2.913a21.415,21.415,0,0,1,13.951-5.788v4.117A17.339,17.339,0,0,0,117.991,767.267Zm-1.029,1.025a17.316,17.316,0,0,0-4.58,11.043h-4.12a21.43,21.43,0,0,1,5.792-13.952Zm-4.58,12.5a16.609,16.609,0,0,0,.224,2.127c-.049-.086-.106-.183-.159-.285-.228-.31-.419-.468-.57-.468a.377.377,0,0,0-.386.24,1.269,1.269,0,0,1-.293.431,2.65,2.65,0,0,1-1.066.48,2.41,2.41,0,0,0-.578,1.151.342.342,0,0,0,.045.386c.1.126.049.256-.142.382q.189.385.1.476c.061.13.045.179-.053.146a.217.217,0,0,0-.24.049.555.555,0,0,0-.134.219,21.614,21.614,0,0,1-.866-5.336Zm16.648,26.605a27.215,27.215,0,0,1-18.072-7.5l3.1-3.1a22.887,22.887,0,0,0,14.976,6.215Zm0-5.837a21.416,21.416,0,0,1-13.89-5.735,1.886,1.886,0,0,0,.8.211,2.165,2.165,0,0,0,.765-.2c.321-.134.606-.269.862-.4a1.545,1.545,0,0,0,.862-.2,1.346,1.346,0,0,0,.72,0,.439.439,0,0,0,.338-.476.664.664,0,0,0-.342-.529c-.228-.159-.342-.3-.342-.431,0-.065-.065-.142-.2-.24a5.307,5.307,0,0,1-.622-.691l.008,0a17.312,17.312,0,0,0,11.039,4.58Zm.777-10.689v-.029a2.032,2.032,0,0,1-.956-.154c-.028-.082-.065-.163-.094-.249a4.564,4.564,0,0,1,.447-.3,1.392,1.392,0,0,1,.6-.24v-.252l.7-.533a.935.935,0,0,1,.248-.093,3.925,3.925,0,0,0,.545-.192,3.47,3.47,0,0,1,.74.334,3.291,3.291,0,0,0,.74.337l.1-.386c.126,0,.317.13.574.386a.938.938,0,0,0,.48-.2.636.636,0,0,0,0-.476.807.807,0,0,1,.289.094.178.178,0,0,1,.138.049.206.206,0,0,0,.146.049h.1a1.065,1.065,0,0,0,.525-.24,4.449,4.449,0,0,1,.529-.338.122.122,0,0,1,.191,0,.558.558,0,0,1,.1.386,1.23,1.23,0,0,1-.818,1.151,14.318,14.318,0,0,1-1.387.574,1.558,1.558,0,0,0-.244.431c-.094.224-.2.337-.334.337a5.517,5.517,0,0,1-1.18-.195,2.174,2.174,0,0,1-.3-.574,2.92,2.92,0,0,0-.691.093l-.785.2A.919.919,0,0,1,129.807,790.866Zm4.153-3.164a.765.765,0,0,1,.48-.622,2.19,2.19,0,0,1,.769-.143c0,.2-.179.386-.529.574a2.6,2.6,0,0,1-.626.289Zm2.969-2.347a.792.792,0,0,1,.382.72.337.337,0,0,1-.382.382c-.191,0-.35-.224-.48-.671-.447-.126-.7-.333-.765-.622s-.033-.46.094-.525a1.864,1.864,0,0,1,.386-.142c.126-.032.159.11.094.427C136.45,785.054,136.677,785.2,136.93,785.355Zm9.241-16.091a.273.273,0,0,1,.191.1,1.206,1.206,0,0,1,.675.191,7.46,7.46,0,0,1,1.159,1.44c.061,0,.142.094.24.289s.207.285.338.285a1.374,1.374,0,0,0,.5-.154l.057-.26a21.36,21.36,0,0,1,1.928,8.184h-4.068l.016-.073a2.037,2.037,0,0,0-.224-1.066,2.1,2.1,0,0,1-.134-1.416,1.5,1.5,0,0,0,.053-.813.569.569,0,0,0-.39.1,1.65,1.65,0,0,0-.24.432c-.1.219-.175.4-.24.524v.053a.771.771,0,0,0-.069.179.96.96,0,0,1-.1.24c-.065.256-.134.512-.2.764a1.855,1.855,0,0,0-.008.765l.008.016c0,.1.012.2.016.3h-2.062a1.2,1.2,0,0,1,.439-.293h-.069l.561-.281a.306.306,0,0,1-.191-.28c0-.191.033-.3.094-.334s.248-.11.561-.236a3.8,3.8,0,0,0,.508-.895,5.648,5.648,0,0,0,.744-1.9c0-.146-.2-.337-.216-.5a2.467,2.467,0,0,1,.049-.407c.029-.675.305-1.838-.557-2.05-.065,0-.1-.094-.1-.284a.669.669,0,0,0,.2-.728h-.59a.849.849,0,0,1,.146-.342.848.848,0,0,0,.15-.431.262.262,0,0,0-.3-.292,1.164,1.164,0,0,0-.492.1.768.768,0,0,1-.3.1.525.525,0,0,1-.151-.021c-.045-.069-.1-.13-.146-.2a1.483,1.483,0,0,0-.423-.94,1.767,1.767,0,0,0-.765-.561l-.033-.037a.658.658,0,0,0,0-.406l.809-.814,1.159.419a.722.722,0,0,0,.305.667,2.7,2.7,0,0,0,.4.294,3.128,3.128,0,0,1,.464.345v.053C146.008,769.2,146.106,769.264,146.171,769.264Zm-3.954,27.875a.335.335,0,0,0-.24-.094c-.1,0-.142-.061-.142-.2s.094-.252.289-.382a1.379,1.379,0,0,0,.484-.671,1.421,1.421,0,0,0,.2-.574.223.223,0,0,0-.146-.24.946.946,0,0,1-.342-.24c-.13-.061-.273-.126-.431-.191a2.813,2.813,0,0,1-.529-.289.559.559,0,0,1-.289-.476,2.145,2.145,0,0,1,.142-.48c.032-.085.069-.171.106-.256l.216-.191,2.217,2.217c0,.256.159.4.447.447l.244.245a21.994,21.994,0,0,1-2.473,1.993.867.867,0,0,1,.159-.256.814.814,0,0,1,.114-.077A.465.465,0,0,0,142.217,797.139ZM140.879,786.6a.675.675,0,0,0-.582.089.853.853,0,0,0-.582.57c0,.065-.032.093-.1.093a.847.847,0,0,0-.382.1,4.055,4.055,0,0,0-.48.191c-.191,0-.289-.061-.289-.191,0-.191.289-.321.866-.382.252-.314.411-.5.472-.566a1.054,1.054,0,0,1,.447-.187,2.169,2.169,0,0,0,.716-.708,2.146,2.146,0,0,0,.358-.61h.089c0,.313.134.472.4.472.2,0,.366-.223.5-.663a3.236,3.236,0,0,0,.8.191.733.733,0,0,0,.7-.362h1.2l-.028.09-.028.077h.008a15.931,15.931,0,0,1-3.213,5.731c-.012-.1-.02-.2-.033-.293-.024.029-.285-.874-.346-.874-.122,0-.277.224-.456.671s-.305.736-.366.863l-.96.191a3.484,3.484,0,0,1-.862.1,2.472,2.472,0,0,1-.814-.337,2.433,2.433,0,0,0-.813-.333,6.1,6.1,0,0,0-.813-.2c-.354-.061-.529-.155-.529-.285,0-.191.126-.289.382-.289a4.2,4.2,0,0,1,.769.142c.382.1.765.2,1.147.289s.736.2,1.054.289a3.494,3.494,0,0,0,.578.143l.578-.191a1.147,1.147,0,0,1,.191-.524,1.164,1.164,0,0,0,.2-.529,4.442,4.442,0,0,0,.354-1.054,5.292,5.292,0,0,0,.151-1.151Q141.172,786.7,140.879,786.6Zm2.546-5.816h2.257a15.968,15.968,0,0,1-.374,2.806,3.02,3.02,0,0,0-.488-.858l-.777-.769c-.065-.321-.114-.541-.146-.671a.745.745,0,0,0-.134-.228A1.521,1.521,0,0,1,143.425,780.787Zm.936,11.734c-.2,0-.289.045-.289.142a4.4,4.4,0,0,1-.09.594l-1.428-1.428a17.353,17.353,0,0,0,4.051-7.443l.065-.061q.488.189.635,0a.579.579,0,0,0,.142-.285,1.312,1.312,0,0,0-.476-.761h-.122a17.311,17.311,0,0,0,.289-2.493h4.116a21.444,21.444,0,0,1-5.788,13.955l-.179-.179v-.037c-.061-.443-.126-.875-.212-1.293C144.983,792.758,144.743,792.522,144.361,792.522Zm-1.017-20.785.008.02a1.585,1.585,0,0,1-.1.484,3.566,3.566,0,0,1-.191.475,2.906,2.906,0,0,0,.765.672,8.853,8.853,0,0,1,.866.671,4.683,4.683,0,0,1,.427,1.111,5.264,5.264,0,0,1,.24,1.013,2.224,2.224,0,0,1-.285.679,1.126,1.126,0,0,1-.96.578l-.094-.1a1.422,1.422,0,0,1,.191-.569,1.437,1.437,0,0,0,.191-.566.753.753,0,0,0,.382-.569c-.126-.061-.224-.106-.289-.138a3.16,3.16,0,0,1-.476-.427c0-.187-.2-.285-.578-.285a.767.767,0,0,0-.48.146c-.126.094-.285.208-.476.334l-.191-.382a.973.973,0,0,0,.094-.407l-.765-1.281a3.114,3.114,0,0,0-1.054-.334,1.736,1.736,0,0,0-.769.025,1.779,1.779,0,0,1-.744-.041,1,1,0,0,0-.769.24,3.527,3.527,0,0,0-.634.622c-.1.118.041.273-.244.216a1.461,1.461,0,0,1-.24-.252l4.352-4.352a.981.981,0,0,0,.1.138c.061.065.191.208.382.432.138.163.273.333.411.508A16.032,16.032,0,0,1,143.344,771.737ZM132.9,800.486a3.521,3.521,0,0,0,1.224.634,21.392,21.392,0,0,1-3.636.435v-4.117h0a2.528,2.528,0,0,0,.61.651,2.719,2.719,0,0,0,.846.143c.427.032.643.113.643.239a.866.866,0,0,1-.142.431.852.852,0,0,0-.146.431A1.425,1.425,0,0,0,132.9,800.486Zm-2.412,6.906v-4.381a23.168,23.168,0,0,0,4.755-.655l.037.089a.589.589,0,0,1,.02.122,3.255,3.255,0,0,1,.956.911c.13.253.48.382,1.058.382a.771.771,0,0,0,.622-.191,3.482,3.482,0,0,1,.334-.386,1.263,1.263,0,0,1,.48-.289.589.589,0,0,0,.382-.285,1.224,1.224,0,0,0,.675-.573,1.787,1.787,0,0,0,.574-.764.529.529,0,0,0,.382-.24,2.846,2.846,0,0,0,.382-1c.057-.033.114-.069.167-.1,0-.048.016-.1.024-.146a23.128,23.128,0,0,0,4.133-3.087l3.1,3.1A27.253,27.253,0,0,1,130.487,807.393Zm19.1-8.53-3.1-3.1a22.87,22.87,0,0,0,6.215-14.98h4.381A27.226,27.226,0,0,1,149.588,798.863Zm7.5-19.528h-4.381a22.825,22.825,0,0,0-4.421-12.817,1.217,1.217,0,0,0-.22-.4,1.445,1.445,0,0,0-.248-.224q-.537-.677-1.123-1.318a1.146,1.146,0,0,1-.118-.3l3.01-3.014A27.227,27.227,0,0,1,157.088,779.335Zm-26.6-26.6a27.239,27.239,0,0,1,18.076,7.5l-2.668,2.664a2.327,2.327,0,0,1-.15-.4c-.207-.2-.346-.3-.4-.3a.727.727,0,0,1-.431-.614,1.036,1.036,0,0,0-.24-.614,1.743,1.743,0,0,1-.964-.846q-.39-.659-.769-.659a.828.828,0,0,1-.626-.073,1.972,1.972,0,0,0-.626-.167,2.115,2.115,0,0,0-.675.094,6.39,6.39,0,0,1-.752.191,1.134,1.134,0,0,0-.1.1,22.858,22.858,0,0,0-9.351-2.472c.252-.4.285-.659.094-.789-.053-.053-.2.033-.419.236Zm0,5.833a21.376,21.376,0,0,1,8.92,2.278l-.012.065c.114.118.24.256.378.419.159.191.272.317.338.382a5.847,5.847,0,0,0,.289.85,4.162,4.162,0,0,0,.285.472,1.057,1.057,0,0,0,.146.805,6.9,6.9,0,0,0,.525.806,3,3,0,0,0,.386-.049,3.534,3.534,0,0,1,.476-.049.642.642,0,0,1,.435.289,1.921,1.921,0,0,1,.334.574,1.245,1.245,0,0,1,.081.317l-1.176,1.175,0,0a6.468,6.468,0,0,0-.565-1.595.938.938,0,0,0-.757-.24c-.065-.065-.285-.342-.667-.825s-.6-.732-.667-.732a.388.388,0,0,0-.289.1,3.2,3.2,0,0,0,.191.342c.065.1.2.309.386.63a.171.171,0,0,1-.191.2.613.613,0,0,0,.476.484l-.094.191.281.561a17.3,17.3,0,0,0-9.506-3.323Zm0,5.569a15.893,15.893,0,0,1,10.014,4.157l-2.945,2.945a11.71,11.71,0,0,0-7.069-2.937Zm0,5.633a10.2,10.2,0,0,1,5.711,2.241.623.623,0,0,0-.2.106.8.8,0,0,1-.191.138c-.065.029-.1.106-.1.224,0,.163.216.22.362.244l-1.131,1.131v-.013a2.253,2.253,0,0,0-.427.3q-.39.2-.439.341c-.024.069-.053.179-.094.33l-.378.378a.5.5,0,0,1-.163.025c-.13,0-.325-.13-.59-.39s-.452-.391-.582-.391a.6.6,0,0,0-.443.147.271.271,0,0,1-.342.049q-.2-.195.439-.439c.423-.158.7-.276.834-.341a1.833,1.833,0,0,0,.781-1.538c0-.329-.13-.5-.39-.5l-.293.281a2.648,2.648,0,0,0-.687.459c-.2.183-.358.342-.488.468a1.357,1.357,0,0,0-.586-.1h-.574l-.033.028Zm-.85,6.59c.049.1.106.151.175.151a.728.728,0,0,1,.464.146.591.591,0,0,0,.5.065.322.322,0,0,0,.106.179.361.361,0,0,0,.37.2c.049.045.081.086.118.126a.946.946,0,0,1,.057.1,3.722,3.722,0,0,0,.155.342l.045.016.037.077a.376.376,0,0,0,.305.049.356.356,0,0,1,.244.024,2.021,2.021,0,0,0,.02.216h.057c.008.077.02.155.037.236a1.871,1.871,0,0,1,.053.423v.191c0,.065-.033.1-.1.1a.793.793,0,0,0-.309.565c0,.13.085.175.256.142a.3.3,0,0,1,.358.142.735.735,0,0,1,.207.569v.851a.321.321,0,0,0,.146.288c.094.061.142.122.142.187a3.292,3.292,0,0,1-.1.712,1.255,1.255,0,0,1-.289.614c-.069.065-.232.065-.5,0a3.12,3.12,0,0,0-.691-.094c-.13,0-.264.191-.394.57a6.431,6.431,0,0,0-.3.862c-.065.257-.2.386-.395.386a1.809,1.809,0,0,0-.395.045l-.073.008-.325.521-.1.138a4.682,4.682,0,0,1-2.908-1.265l.508-.513a4.6,4.6,0,0,0,.923-.215l.163-.065c.517-.228.468-.639.724-1.086.171-.293.647-.622.264-.952.431-.756-1.566-.765-1.92-.6-.411.2-.146.639-.366.968-.118.175-.3.179-.456.3a2.5,2.5,0,0,0-.732,1l-.008.008a4.515,4.515,0,0,1-.325-.728.247.247,0,0,1,.073.02c-.033-.077-.049-.134-.02-.162h.094v.1c.252.065.415.065.48,0a4.351,4.351,0,0,0,.142-.529,6,6,0,0,1,.529-1.126.438.438,0,0,1-.228-.289c-.028-.13-.1-.163-.224-.1a.3.3,0,0,0-.183.289.589.589,0,0,1-.179.386.542.542,0,0,1-.378.187.255.255,0,0,0-.289-.284.564.564,0,0,0-.382.191c-.13,0-.431.032-.911.093a1.968,1.968,0,0,1-.911,0c-.13-.126.033-.252.48-.382a1.325,1.325,0,0,1,.48-1.16,1.454,1.454,0,0,0,.573.2l.191-.2h.1c.191,0,.3.163.333.484s.114.484.24.484a.554.554,0,0,0,.386-.2v-.484c.126-.512.22-.87.285-1.066v-.289a1.54,1.54,0,0,1,.3-.472h.106a.979.979,0,0,1,.447-.2,1.581,1.581,0,0,0,.191-.59c.191-.065.529-.2,1.009-.394s.72-.394.72-.589v-.053a4.243,4.243,0,0,1,.651-.09A.424.424,0,0,0,129.637,776.358Zm-.606-23.624v4.381a22.846,22.846,0,0,0-14.976,6.215l-3.1-3.1A27.22,27.22,0,0,1,129.031,752.733Zm-19.1,8.526,3.1,3.1a22.89,22.89,0,0,0-6.215,14.981h-4.381A27.247,27.247,0,0,1,109.93,761.259Z" transform="translate(-89.34 -751.261)" fill="#00adef"/>
  <g id="Group_219" data-name="Group 219" transform="translate(1.916 75.57)">
    <path id="Path_197" data-name="Path 197" d="M102.367,769.883v9.042a5.78,5.78,0,0,1-1.558,4.421,6.641,6.641,0,0,1-4.7,1.46,6.708,6.708,0,0,1-4.743-1.46,5.765,5.765,0,0,1-1.558-4.421v-9.042h3.083v8.558a3.991,3.991,0,0,0,.8,2.7,2.989,2.989,0,0,0,2.371.907,3.06,3.06,0,0,0,2.4-.915,3.926,3.926,0,0,0,.818-2.7v-8.558Z" transform="translate(-89.811 -769.708)" fill="#00a6e0" fill-rule="evenodd"/>
    <path id="Path_198" data-name="Path 198" d="M93.69,784.464V769.931h3.226l6.431,8.46a6.488,6.488,0,0,1,.61,1.005c.22.435.451.947.692,1.533-.077-.427-.126-.854-.163-1.277s-.049-.956-.049-1.591v-8.131h2.977v14.534h-3.047l-6.61-8.615a6.279,6.279,0,0,1-.606-1.008q-.33-.653-.7-1.554c.073.418.126.838.159,1.265s.053.964.053,1.614v8.3Z" transform="translate(-77.912 -769.561)" fill="#00a6e0" fill-rule="evenodd"/>
    <path id="Path_199" data-name="Path 199" d="M113.224,777.473a7.6,7.6,0,0,1-.582,2.949,7.238,7.238,0,0,1-1.672,2.445,8.047,8.047,0,0,1-2.554,1.655,7.676,7.676,0,0,1-2.937.578,7.784,7.784,0,0,1-2.607-.452,8.193,8.193,0,0,1-2.339-1.3,7.4,7.4,0,0,1-2.831-5.878,7.522,7.522,0,0,1,.578-2.949,7.294,7.294,0,0,1,1.688-2.444,7.973,7.973,0,0,1,5.511-2.237,7.738,7.738,0,0,1,2.953.586,8,8,0,0,1,2.538,1.651,7.3,7.3,0,0,1,1.676,2.453,7.509,7.509,0,0,1,.578,2.941Zm-7.745,4.857a4.261,4.261,0,0,0,3.262-1.388,5.3,5.3,0,0,0-.016-6.947,4.228,4.228,0,0,0-3.246-1.412,4.294,4.294,0,0,0-3.278,1.4,4.945,4.945,0,0,0-1.3,3.486,4.894,4.894,0,0,0,1.281,3.478,4.313,4.313,0,0,0,3.3,1.379Z" transform="translate(-65.605 -769.834)" fill="#00a6e0" fill-rule="evenodd"/>
    <path id="Path_200" data-name="Path 200" d="M102.164,784.464V769.931h3.958a16.57,16.57,0,0,1,3.7.326,6.469,6.469,0,0,1,2.375,1.094,6.26,6.26,0,0,1,2.005,2.477,8.1,8.1,0,0,1,.683,3.4,7.969,7.969,0,0,1-.7,3.429,6.219,6.219,0,0,1-2.038,2.469,6.6,6.6,0,0,1-2.213,1.029,15.338,15.338,0,0,1-3.563.309Zm3.1-2.612H107a4.915,4.915,0,0,0,3.567-1.114,6.106,6.106,0,0,0,0-7.045A4.915,4.915,0,0,0,107,772.579h-1.737v9.274Z" transform="translate(-51.918 -769.561)" fill="#00a6e0" fill-rule="evenodd"/>
    <path id="Path_201" data-name="Path 201" d="M118.116,773.977a6.466,6.466,0,0,0-1.94-1.236,5.747,5.747,0,0,0-2.123-.391,4.982,4.982,0,0,0-3.705,1.387,5.766,5.766,0,0,0-.1,7.37,4.609,4.609,0,0,0,3.5,1.343,6.2,6.2,0,0,0,4.352-1.692l-.02,3.193a8.338,8.338,0,0,1-2.078.874,8.948,8.948,0,0,1-2.29.289,7.854,7.854,0,0,1-5.707-2.16A7.843,7.843,0,0,1,108,772a7.957,7.957,0,0,1,5.756-2.156,10.292,10.292,0,0,1,2.286.252,9.946,9.946,0,0,1,2.176.764l-.106,3.12Z" transform="translate(-40.854 -769.84)" fill="#00a6e0" fill-rule="evenodd"/>
  </g>
</svg>
