<svg id="Group_191" data-name="Group 191" xmlns="http://www.w3.org/2000/svg" xmlns:xlink="http://www.w3.org/1999/xlink" width="99.31" height="101.379" viewBox="0 0 99.31 101.379">
  <defs>
    <linearGradient id="linear-gradient" x1="0.5" x2="0.5" y2="1" gradientUnits="objectBoundingBox">
      <stop offset="0" stop-color="#66ff74"/>
      <stop offset="0.072" stop-color="#53f265"/>
      <stop offset="0.213" stop-color="#35dd4c"/>
      <stop offset="0.363" stop-color="#1dcc3a"/>
      <stop offset="0.522" stop-color="#0dc12c"/>
      <stop offset="0.696" stop-color="#03ba24"/>
      <stop offset="0.916" stop-color="#00b822"/>
    </linearGradient>
  </defs>
  <rect id="Rectangle_96" data-name="Rectangle 96" width="99.31" height="101.379" rx="49.655" fill="url(#linear-gradient)"/>
  <g id="Group_156" data-name="Group 156" transform="translate(20.066 20.066)">
    <path id="Path_178" data-name="Path 178" d="M1557.133,1249.9a24.908,24.908,0,1,1-13.506,45.834.5.5,0,0,0-.4-.064l-3.961,1.062-4.938,1.323,1.324-4.938,1.02-3.806a.5.5,0,0,0-.072-.414,24.9,24.9,0,0,1,20.535-39m0-5.213A30.119,30.119,0,0,0,1531,1289.78a.5.5,0,0,1,.05.378l-.432,1.612-1.323,4.938-2.337,8.721,8.721-2.337,4.938-1.323,1.847-.494a.5.5,0,0,1,.367.044,30.121,30.121,0,1,0,14.306-56.629Z" transform="translate(-1526.954 -1244.689)" fill="#fff"/>
    <path id="Path_179" data-name="Path 179" d="M1579.275,1297.345a6.453,6.453,0,0,1,2.794-.1,1.4,1.4,0,0,1,1.029.795c1.136,2.416,1.513,3.376,2.327,5.218a3.461,3.461,0,0,1-.819,3.926c-.5.464-.964.9-1.17,1.109-.59.628,3.157,8.106,10.907,10.2a.971.971,0,0,0,1-.325c.784-.953,1.537-1.946,2.315-2.906a1.412,1.412,0,0,1,1.61-.416c2.57,1,3.307,1.574,5.882,2.579a1.329,1.329,0,0,1,1,1.356c0,2.282-.728,5.31-4.226,6.477a9.555,9.555,0,0,1-1.623.268c-10.067.629-23.318-9.969-24.682-20.016h0C1575.228,1300.136,1578.323,1297.751,1579.275,1297.345Z" transform="translate(-1560.583 -1280.971)" fill="#fff"/>
  </g>
</svg>
