<svg id="Group_205" data-name="Group 205" xmlns="http://www.w3.org/2000/svg" xmlns:xlink="http://www.w3.org/1999/xlink" width="100.454" height="102.547" viewBox="0 0 100.454 102.547">
  <defs>
    <linearGradient id="linear-gradient" y1="0.5" x2="1" y2="0.5" gradientUnits="objectBoundingBox">
      <stop offset="0.234" stop-color="#54daf2"/>
      <stop offset="1" stop-color="#1abbd4"/>
    </linearGradient>
  </defs>
  <rect id="Rectangle_115" data-name="Rectangle 115" width="100.454" height="102.547" rx="50.227" fill="url(#linear-gradient)"/>
  <g id="Group_172" data-name="Group 172" transform="translate(22.093 22.965)">
    <path id="Path_184" data-name="Path 184" d="M121.456,313.015a28.3,28.3,0,0,0,0-18.626,1.836,1.836,0,0,0-.09-.255,28.307,28.307,0,0,0-53.283,0,1.833,1.833,0,0,0-.09.255,28.313,28.313,0,0,0,0,18.626,2.041,2.041,0,0,0,.09.255,28.307,28.307,0,0,0,53.283,0,1.845,1.845,0,0,0,.09-.255ZM94.724,327.952c-1.078,0-2.816-1.951-4.269-6.31a44.4,44.4,0,0,1-1.671-7.152h11.88a44.385,44.385,0,0,1-1.671,7.152c-1.453,4.359-3.192,6.31-4.269,6.31Zm-6.433-17.519c-.2-2.164-.3-4.421-.3-6.732s.1-4.566.3-6.73h12.865c.194,2.164.3,4.42.3,6.73s-.1,4.568-.3,6.732ZM70.475,303.7a24.136,24.136,0,0,1,.951-6.73h12.8c-.19,2.209-.286,4.471-.286,6.73s.1,4.523.286,6.732h-12.8a24.147,24.147,0,0,1-.951-6.732Zm24.249-24.25c1.078,0,2.816,1.951,4.269,6.31a44.354,44.354,0,0,1,1.671,7.151H88.784a44.274,44.274,0,0,1,1.671-7.151c1.453-4.359,3.191-6.31,4.269-6.31Zm10.5,17.52h12.8a24.286,24.286,0,0,1,0,13.461h-12.8c.19-2.209.285-4.471.285-6.732s-.095-4.521-.285-6.73Zm11.211-4.058H104.762a38.966,38.966,0,0,0-3.7-12.619,24.358,24.358,0,0,1,15.373,12.619ZM88.384,280.295a38.965,38.965,0,0,0-3.7,12.619H73.011a24.358,24.358,0,0,1,15.373-12.619Zm-15.373,34.2H84.686a38.967,38.967,0,0,0,3.7,12.619,24.362,24.362,0,0,1-15.373-12.619Zm28.054,12.619a38.968,38.968,0,0,0,3.7-12.619h11.675a24.361,24.361,0,0,1-15.373,12.619Zm0,0" transform="translate(-66.417 -275.394)" fill="#fff"/>
  </g>
</svg>
