<svg id="Group_189" data-name="Group 189" xmlns="http://www.w3.org/2000/svg" width="99.31" height="101.379" viewBox="0 0 99.31 101.379">
  <rect id="Rectangle_96" data-name="Rectangle 96" width="99.31" height="101.379" rx="49.655" fill="#ff0401"/>
  <g id="Group_141" data-name="Group 141" transform="translate(20.066 30.099)">
    <path id="Path_167" data-name="Path 167" d="M5873.306,1287.665c-.118-.8-.254-1.6-.408-2.393-.1-.533-.208-1.062-.327-1.591a8.642,8.642,0,0,0-.294-1.034c-.063-.181-.135-.357-.208-.529a8.337,8.337,0,0,0-2.305-3.07,10.022,10.022,0,0,0-5.129-2.207c-13.522-1.767-26.871-1.345-41.091,0a8.857,8.857,0,0,0-1.236.213,8.427,8.427,0,0,0-1.25.417c-.036.014-.069.028-.1.042a9.69,9.69,0,0,0-2.576,1.525,8.051,8.051,0,0,0-2.226,2.908c-.049.1-.094.209-.134.316-.037.088-.069.172-.1.26l-.069.195-.249.9c-.117.528-.228,1.058-.324,1.591q-.233,1.189-.409,2.393a59.006,59.006,0,0,0-.634,7.3c-.009.228-.014.459-.014.692-.009.287-.009.57-.009.858v.06c0,.287.047,1.072.657,8.788.118.8.254,1.6.409,2.393.1.534.207,1.062.324,1.591a9.222,9.222,0,0,0,.294,1.034c.063.181.137.357.21.529a8.318,8.318,0,0,0,2.3,3.07,9.989,9.989,0,0,0,5.129,2.207c13.526,1.771,26.872,1.35,41.091,0a8.009,8.009,0,0,0,1.313-.237c.049-.009.1-.023.155-.037a9.086,9.086,0,0,0,1.273-.459.676.676,0,0,1,.08-.037,9.6,9.6,0,0,0,2.344-1.428,8.069,8.069,0,0,0,2.223-2.908c.049-.1.094-.209.136-.315.036-.089.067-.172.1-.26.023-.064.047-.13.069-.195l.249-.9c.118-.529.228-1.057.327-1.59q.231-1.19.408-2.393a58.716,58.716,0,0,0,.634-7.3c.008-.227.012-.459.012-.691.006-.306.011-.612.011-.918C5873.958,1296.165,5873.917,1295.381,5873.306,1287.665Z" transform="translate(-5814.211 -1275.669)" fill="#fff"/>
    <path id="Path_168" data-name="Path 168" d="M5906.431,1323.541a.067.067,0,0,1,0,.117l-7.5,4.328-7.5,4.328a.068.068,0,0,1-.1-.059v-17.312a.068.068,0,0,1,.1-.059l7.5,4.328Z" transform="translate(-5867.55 -1302.784)" fill="#ff0401"/>
  </g>
</svg>
