<svg xmlns="http://www.w3.org/2000/svg" width="19.573" height="19.98" viewBox="0 0 19.573 19.98">
  <g id="Group_558" data-name="Group 558" transform="translate(-144 -752.694)">
    <g id="Group_557" data-name="Group 557">
      <g id="Group_556" data-name="Group 556">
        <g id="Group_552" data-name="Group 552">
          <g id="Group_555" data-name="Group 555">
            <rect id="Rectangle_96" data-name="Rectangle 96" width="19.573" height="19.98" rx="9.786" transform="translate(144 752.694)" fill="#707070"/>
          </g>
        </g>
      </g>
    </g>
    <g id="Group_141" data-name="Group 141" transform="translate(147.955 758.627)">
      <path id="Path_167" data-name="Path 167" d="M5825.857,1278.033c-.023-.157-.05-.315-.08-.472-.02-.105-.041-.209-.064-.313a1.668,1.668,0,0,0-.058-.2c-.012-.036-.027-.07-.041-.1a1.64,1.64,0,0,0-.455-.6,1.973,1.973,0,0,0-1.011-.435,35.765,35.765,0,0,0-8.1,0,1.754,1.754,0,0,0-.243.042,1.679,1.679,0,0,0-.247.082l-.02.008a1.921,1.921,0,0,0-.508.3,1.594,1.594,0,0,0-.438.573c-.01.02-.019.041-.026.062s-.014.034-.02.051l-.014.038-.049.178c-.023.1-.045.208-.064.314q-.045.235-.081.472a11.742,11.742,0,0,0-.125,1.438c0,.045,0,.091,0,.136s0,.112,0,.169v.012c0,.057.009.211.129,1.732.023.157.05.315.081.471.02.105.041.209.064.314a1.75,1.75,0,0,0,.058.2c.013.036.027.07.041.1a1.645,1.645,0,0,0,.455.605,1.969,1.969,0,0,0,1.011.435,35.641,35.641,0,0,0,8.1,0,1.554,1.554,0,0,0,.259-.047l.03-.007a1.81,1.81,0,0,0,.251-.09l.016-.007a1.894,1.894,0,0,0,.462-.281,1.586,1.586,0,0,0,.438-.573c.01-.02.019-.041.027-.062s.013-.034.02-.051l.014-.038.049-.178c.023-.1.045-.208.064-.313q.045-.234.08-.472a11.46,11.46,0,0,0,.125-1.439c0-.045,0-.091,0-.136s0-.121,0-.181S5825.979,1279.554,5825.857,1278.033Z" transform="translate(-5814.211 -1275.669)" fill="#fff"/>
      <path id="Path_168" data-name="Path 168" d="M5894.312,1316.583a.013.013,0,0,1,0,.023l-1.478.853-1.477.853a.014.014,0,0,1-.021-.011v-3.412a.014.014,0,0,1,.021-.011l1.477.853Z" transform="translate(-5886.648 -1312.493)" fill="#707070"/>
    </g>
  </g>
</svg>
